<?xml version="1.0" encoding="UTF-8" standalone="no"?>
<!-- Created with Inkscape (http://www.inkscape.org/) -->

<svg
   xmlns:dc="http://purl.org/dc/elements/1.1/"
   xmlns:cc="http://creativecommons.org/ns#"
   xmlns:rdf="http://www.w3.org/1999/02/22-rdf-syntax-ns#"
   xmlns:svg="http://www.w3.org/2000/svg"
   xmlns="http://www.w3.org/2000/svg"
   xmlns:xlink="http://www.w3.org/1999/xlink"
   xmlns:sodipodi="http://sodipodi.sourceforge.net/DTD/sodipodi-0.dtd"
   xmlns:inkscape="http://www.inkscape.org/namespaces/inkscape"
   version="1.1"
   width="437.07874"
   height="163.8922"
   id="svg2"
   inkscape:version="0.48.3.1 r9886"
   sodipodi:docname="title.svg">
  <sodipodi:namedview
     pagecolor="#ffffff"
     bordercolor="#666666"
     borderopacity="1"
     objecttolerance="10"
     gridtolerance="10"
     guidetolerance="10"
     inkscape:pageopacity="0"
     inkscape:pageshadow="2"
     inkscape:window-width="1920"
     inkscape:window-height="1024"
     id="namedview72"
     showgrid="false"
     inkscape:zoom="0.80763481"
     inkscape:cx="46.177939"
     inkscape:cy="-78.644096"
     inkscape:window-x="0"
     inkscape:window-y="27"
     inkscape:window-maximized="1"
     inkscape:current-layer="svg2" />
  <metadata
     id="metadata8">
    <rdf:RDF>
      <cc:Work
         rdf:about="">
        <dc:format>image/svg+xml</dc:format>
        <dc:type
           rdf:resource="http://purl.org/dc/dcmitype/StillImage" />
        <dc:title />
      </cc:Work>
    </rdf:RDF>
  </metadata>
  <defs
     id="defs6">
    <linearGradient
       id="linearGradient4099">
      <stop
         id="stop4101"
         style="stop-color:#1a1a1a;stop-opacity:1"
         offset="0" />
      <stop
         id="stop4107"
         style="stop-color:#343434;stop-opacity:1"
         offset="0.23076923" />
      <stop
         id="stop4103"
         style="stop-color:#000000;stop-opacity:1"
         offset="1" />
    </linearGradient>
    <radialGradient
       cx="414.68207"
       cy="-8.8804731"
       r="123.54523"
       fx="414.68207"
       fy="-8.8804731"
       id="radialGradient3198"
       xlink:href="#linearGradient3203"
       gradientUnits="userSpaceOnUse"
       gradientTransform="matrix(-5.8290882e-6,0.8941855,-1.9479265,1.125115e-8,165.7273,-111.02766)" />
    <radialGradient
       cx="488.9509"
       cy="582.84967"
       r="167.56416"
       fx="488.9509"
       fy="582.84967"
       id="radialGradient3192"
       xlink:href="#linearGradient3173"
       gradientUnits="userSpaceOnUse"
       gradientTransform="matrix(0,-1.4798236,1.3254777,-3.8490756e-6,-461.82595,1155.7364)" />
    <radialGradient
       cx="347.67834"
       cy="652.27606"
       r="59.254597"
       fx="347.67834"
       fy="652.27606"
       id="radialGradient4126"
       xlink:href="#linearGradient3173"
       gradientUnits="userSpaceOnUse"
       gradientTransform="matrix(2.8421614e-8,-2.2818022,-2.0267841,0,1762.0945,1276.6775)" />
    <radialGradient
       cx="414.68207"
       cy="-8.8804731"
       r="123.54523"
       fx="414.68207"
       fy="-8.8804731"
       id="radialGradient4090"
       xlink:href="#linearGradient3203"
       gradientUnits="userSpaceOnUse"
       gradientTransform="matrix(-5.8290882e-6,0.8941855,-1.9479265,1.125115e-8,336.39141,255.17411)" />
    <radialGradient
       cx="355.12189"
       cy="615.60382"
       r="59.254597"
       fx="355.12189"
       fy="615.60382"
       id="radialGradient3483"
       xlink:href="#linearGradient3173"
       gradientUnits="userSpaceOnUse"
       gradientTransform="matrix(-2.8421614e-8,-2.2818022,2.0267841,0,-1051.3358,1276.6775)" />
    <radialGradient
       cx="488.9509"
       cy="582.84967"
       r="167.56416"
       fx="488.9509"
       fy="582.84967"
       id="radialGradient3475"
       xlink:href="#linearGradient3173"
       gradientUnits="userSpaceOnUse"
       gradientTransform="matrix(0,-1.4798236,1.3254777,-3.8490756e-6,-461.82595,1155.7364)" />
    <linearGradient
       x1="346.23685"
       y1="537.41357"
       x2="359.4718"
       y2="537.41357"
       id="linearGradient3211"
       xlink:href="#linearGradient4098"
       gradientUnits="userSpaceOnUse"
       gradientTransform="translate(0,-2)" />
    <linearGradient
       id="linearGradient3173">
      <stop
         id="stop3175"
         style="stop-color:#a5a5a5;stop-opacity:1"
         offset="0" />
      <stop
         id="stop3177"
         style="stop-color:#000000;stop-opacity:1"
         offset="1" />
    </linearGradient>
    <linearGradient
       id="linearGradient3203">
      <stop
         id="stop3205"
         style="stop-color:#ffb142;stop-opacity:1"
         offset="0" />
      <stop
         id="stop4092"
         style="stop-color:#ffb141;stop-opacity:1"
         offset="0.88679248" />
      <stop
         id="stop3207"
         style="stop-color:#c87600;stop-opacity:1"
         offset="1" />
    </linearGradient>
    <linearGradient
       id="linearGradient4098">
      <stop
         id="stop4100"
         style="stop-color:#ffb142;stop-opacity:1"
         offset="0" />
      <stop
         id="stop4104"
         style="stop-color:#c87600;stop-opacity:1"
         offset="1" />
    </linearGradient>
    <filter
       x="-0.050117277"
       y="-0.11027887"
       width="1.1002346"
       height="1.2205577"
       color-interpolation-filters="sRGB"
       id="filter4033">
      <feGaussianBlur
         id="feGaussianBlur4035"
         stdDeviation="2.0526565" />
    </filter>
    <filter
       x="-0.029604521"
       y="-0.10702265"
       width="1.059209"
       height="1.2140453"
       color-interpolation-filters="sRGB"
       id="filter4037">
      <feGaussianBlur
         id="feGaussianBlur4039"
         stdDeviation="2.0526565" />
    </filter>
    <linearGradient
       x1="206.66693"
       y1="668.36591"
       x2="206.66693"
       y2="736.61426"
       id="linearGradient4105"
       xlink:href="#linearGradient4099"
       gradientUnits="userSpaceOnUse"
       gradientTransform="translate(-34.45368,-572.20755)" />
    <filter
       color-interpolation-filters="sRGB"
       id="filter4124">
      <feGaussianBlur
         id="feGaussianBlur4126"
         stdDeviation="0.24987503" />
    </filter>
  </defs>
  <g
     transform="translate(-29.27622,-565.30427)"
     id="g3171"
     style="fill:#ffffff;fill-opacity:0.64610392;filter:url(#filter4033)">
    <path
       d="m 94.693863,609.16302 c 0.562473,6e-5 1.546847,-0.0312 2.953125,-0.0937 l 0.890625,0.0937 0.796875,0.32813 0.703122,0.46875 0.46875,0.65625 0.28125,0.75 0.0937,0.79687 -0.0469,0.75 -0.23438,0.70313 -0.32812,0.65625 -0.421877,0.65625 -0.515625,0.5625 -0.609375,0.51562 -0.703125,0.46875 -0.796875,0.375 -2.484375,0.79688 -6.328125,1.35937 -6.328125,28.3125 -1.078125,2.34375 -0.46875,0.84375 -0.984375,1.26563 -0.5625,0.46875 -0.65625,0.32812 -0.75,0.0937 -0.703125,-0.0937 -0.5625,-0.28125 -0.75,-0.60937 c -0.09376,-0.12499 -0.312507,-0.34374 -0.65625,-0.65625 l -0.84375,-0.75 c 0.624994,-3.15624 1.515618,-8.18748 2.671875,-15.09375 1.09374,-6.53122 1.999989,-11.54684 2.71875,-15.04688 -1.18751,4e-5 -2.359384,-0.0156 -3.515625,-0.0469 l -3.515625,-0.0937 c -0.625004,-0.0312 -1.265628,-0.14059 -1.921875,-0.32813 l -0.609375,-0.1875 -0.5625,-0.23437 -0.515625,-0.375 -0.515625,-0.51563 -0.234375,-0.79687 0,-0.84375 0.28125,-0.65625 0.375,-0.51563 0.46875,-0.42187 1.078125,-0.75 c 0.906247,-0.4687 1.687496,-0.8437 2.34375,-1.125 0.468745,-0.1562 1.281244,-0.39058 2.4375,-0.70313 7.187486,-1.93745 13.734354,-3.06245 19.640625,-3.375"
       id="path3102"
       style="font-size:48px;font-style:normal;font-variant:normal;font-weight:bold;font-stretch:normal;text-align:center;line-height:125%;letter-spacing:0px;word-spacing:0px;writing-mode:lr-tb;text-anchor:middle;fill:#ffffff;fill-opacity:0.64610392;stroke:none;font-family:'A.C.M.E. Explosive';-inkscape-font-specification:'A.C.M.E. Explosive Bold'" />
    <path
       d="m 124.22511,648.49115 -0.51562,0.5625 -0.51563,0.51562 -0.51562,0.42188 -0.5625,0.375 -0.51563,0.28125 -0.5625,0.23437 -0.5625,0.14063 -0.5625,0.0469 -0.5625,-0.0469 -0.60937,-0.14063 -0.51563,-0.32812 -0.46875,-0.46875 -0.28125,-0.60938 -0.14062,-0.60937 0,-0.65625 c 0.65623,-1.99999 1.15622,-3.96873 1.5,-5.90625 -2.59377,2.00002 -5.71877,4.17189 -9.375,6.51562 -1.84376,1.18751 -3.57814,2.21876 -5.20313,3.09375 -0.84376,0.25001 -2.10938,0.53126 -3.79687,0.84375 -0.750006,0.0625 -1.187506,0.0938 -1.312502,0.0937 -0.718753,-0.0312 -1.281253,-0.14061 -1.6875,-0.32812 l -0.796875,-0.375 -0.75,-0.5625 -0.28125,-0.375 -0.234375,-0.42188 -0.328125,-0.89062 -0.1875,-0.98438 c 0,-0.90623 0.01563,-1.45311 0.04687,-1.64062 0.21875,-1.31249 0.375,-2.17186 0.46875,-2.57813 1.874998,-8.12497 3.906246,-15.45309 6.093757,-21.98437 0.81248,-2.40621 1.64062,-4.51558 2.48437,-6.32813 0.18748,-0.37495 0.51561,-1.04683 0.98438,-2.01562 l 1.125,-1.45313 1.03125,-1.07812 0.5625,-0.42188 0.5625,-0.375 0.65625,-0.23437 0.75,-0.0937 0.75,0.1875 0.65625,0.32812 0.51562,0.51563 0.375,0.5625 0.28125,0.60937 0.23438,0.70313 0.375,1.82812 c -2.28128,7.46879 -4.9844,15.65628 -8.10938,24.5625 -0.15627,0.68752 -0.23439,1.28127 -0.23437,1.78125 l 0,0.0469 c 0.49998,-0.0937 1.21873,-0.39061 2.15625,-0.89063 6.15622,-4.56247 11.5156,-9.24997 16.07812,-14.0625 l 4.21875,-15.79687 0.46875,-0.60938 0.42188,-0.375 0.42187,-0.32812 0.46875,-0.28125 0.51562,-0.23438 0.60938,-0.14062 0.60937,-0.0469 0.65625,0.0469 0.65625,0.1875 0.60938,0.375 0.51562,0.5625 0.42188,0.65625 0.28125,0.70312 0.1875,0.79688 0.0469,0.89062 0,1.07813 -0.84375,4.78125 c -1.28129,7.25003 -4.00004,16.76565 -8.15624,28.54687 l -0.60938,0.79688"
       id="path3104"
       style="font-size:48px;font-style:normal;font-variant:normal;font-weight:bold;font-stretch:normal;text-align:center;line-height:125%;letter-spacing:0px;word-spacing:0px;writing-mode:lr-tb;text-anchor:middle;fill:#ffffff;fill-opacity:0.64610392;stroke:none;font-family:'A.C.M.E. Explosive';-inkscape-font-specification:'A.C.M.E. Explosive Bold'" />
    <path
       d="m 157.31886,626.0849 -2.57812,2.95312 c -0.0938,0.12504 -0.2969,0.35941 -0.60938,0.70313 1.90623,3.25003 2.96873,7.3594 3.1875,12.32812 0.0625,1.31252 0.12498,2.29689 0.1875,2.95313 l -0.14062,1.73437 c -0.15628,0.78127 -0.31253,1.48439 -0.46875,2.10938 l -0.28125,0.60937 -0.32813,0.5625 -0.42187,0.51563 -0.51563,0.42187 -0.60937,0.32813 -0.65625,0.1875 -0.65625,0.0469 -0.65625,-0.0937 -0.65625,-0.14062 -0.60938,-0.28125 -1.125,-0.60938 -2.39062,-8.90625 c -0.12502,-0.46873 -0.32814,-0.99998 -0.60938,-1.59375 -1.93751,1.62502 -3.57813,3.45315 -4.92187,5.48438 -0.75001,1.15626 -2.10939,3.21876 -4.07813,6.1875 l -0.51562,0.75 -1.92188,0.84375 c -0.4375,0.12501 -1.09375,0.29688 -1.96875,0.51562 l -0.60937,0.0469 -0.65625,-0.0469 -0.65625,-0.23437 -0.65625,-0.46875 -0.375,-0.65625 -0.1875,-0.70313 0,-0.70312 0.0937,-0.60938 0.375,-1.21875 c 0.21875,-0.49998 0.82812,-1.59373 1.82812,-3.28125 3,-4.99998 6.23437,-9.4531 9.70313,-13.35937 0.0937,-0.12497 0.21874,-0.2656 0.375,-0.42188 -0.21876,-0.46872 -0.35939,-0.87497 -0.42188,-1.21875 l -4.82812,-15.5625 0.0469,-1.125 0.0469,-0.79687 0.14062,-0.75 0.1875,-0.70313 0.28125,-0.60937 0.375,-0.60938 0.46875,-0.51562 0.5625,-0.42188 0.60938,-0.28125 0.60937,-0.1875 0.65625,-0.0469 0.65625,0 1.21875,0.23437 1.6875,0.60938 0.79688,1.21875 c 0.90623,1.7188 2.01561,4.65629 3.32812,8.8125 0.18748,0.59379 0.42186,1.15629 0.70313,1.6875 l 8.95312,-10.17188 c 0.21872,-0.18745 0.65622,-0.51557 1.3125,-0.98437 l 0.9375,-0.375 0.98438,-0.14063 0.51562,0.0469 0.42188,0.0937 0.89062,0.32812 0.70313,0.51563 c 0.24996,0.2813 0.51559,0.62505 0.79687,1.03125 0.34372,0.9063 0.51559,1.73442 0.51563,2.48437 l -0.1875,0.89063 c -0.12504,0.40629 -0.31254,0.84379 -0.5625,1.3125 l -0.65625,0.75 -0.60938,0.51562 c -0.81253,0.9063 -3.15628,3.57817 -7.03125,8.01563"
       id="path3106"
       style="font-size:48px;font-style:normal;font-variant:normal;font-weight:bold;font-stretch:normal;text-align:center;line-height:125%;letter-spacing:0px;word-spacing:0px;writing-mode:lr-tb;text-anchor:middle;fill:#ffffff;fill-opacity:0.64610392;stroke:none;font-family:'A.C.M.E. Explosive';-inkscape-font-specification:'A.C.M.E. Explosive Bold'" />
  </g>
  <g
     transform="translate(-29.27622,-565.30427)"
     id="g3164"
     style="fill:#ffffff;fill-opacity:0.64610392;filter:url(#filter4037)">
    <path
       d="m 296.72511,626.78802 -0.46875,-0.14062 -0.46875,-0.23438 -0.42187,-0.28125 -0.32813,-0.375 -0.28125,-0.375 -0.23437,-0.46875 -0.1875,-0.46875 -0.0937,-0.46875 -0.0937,-0.89062 0.89062,-1.45313 c -3e-5,4e-5 0.28122,-0.49996 0.84375,-1.5 l -0.51562,-0.14062 -0.60938,-0.0469 -0.65625,0 -0.75,0.0937 -0.79687,0.23438 -0.79688,0.28125 -0.89062,0.42187 -0.89063,0.46875 -1.82812,1.21875 -1.82813,1.45313 -1.82812,1.73437 -1.73438,1.82813 -1.64062,2.01562 -1.45313,2.01563 -1.26562,2.0625 -0.98438,1.96875 -0.75,1.82812 -0.23437,0.84375 c -0.15626,0.56253 -0.23439,1.18752 -0.23438,1.875 0.49999,1.34377 1.49999,2.18752 3,2.53125 0.46874,0.0938 0.96874,0.14065 1.5,0.14063 1.65624,2e-5 3.54686,-0.43748 5.67188,-1.3125 2.12498,-0.87498 3.84372,-1.89061 5.15625,-3.04688 0.84372,-0.74997 1.48435,-1.46872 1.92187,-2.15625 l 0.23438,-0.375 0.65625,-0.60937 0.65625,-0.46875 0.79687,-0.28125 0.79688,-0.0469 0.75,0.14063 0.65625,0.32812 0.5625,0.46875 0.46875,0.51563 0.32812,0.5625 0.28125,0.60937 0.1875,0.70313 0.14063,0.65625 0,0.75 -0.0469,0.75 -0.1875,0.70312 -0.32812,0.84375 c -0.84378,1.03127 -1.59378,1.89065 -2.25,2.57813 -1.53128,1.53126 -3.93753,3.31251 -7.21875,5.34375 -3.78127,1.65626 -7.39064,2.42188 -10.82813,2.29687 -1.28126,-0.0312 -2.46876,-0.15624 -3.5625,-0.375 l -1.96875,-0.375 c -1.03125,-0.18749 -1.875,-0.43749 -2.53125,-0.75 l -1.40625,-0.65625 -0.60937,-0.375 -0.5625,-0.46875 -0.51563,-0.46875 -0.46875,-0.51562 -0.375,-0.60938 -0.32812,-0.60937 -0.23438,-0.60938 -0.1875,-0.65625 -0.1875,-1.35937 0,-1.45313 0.1875,-1.54687 c 0.21875,-1.78123 0.71875,-3.84373 1.5,-6.1875 l 0.375,-1.125 c 1.09375,-2.28122 2.35937,-4.49997 3.79688,-6.65625 0.68749,-0.99997 2.21874,-2.89059 4.59375,-5.67188 1.49999,-1.40621 3.31248,-2.95308 5.4375,-4.64062 l 2.01562,-1.3125 2.10938,-1.17188 2.15625,-1.03125 2.25,-0.89062 2.39062,-0.79688 2.4375,-0.60937 2.95313,-0.5625 c 1.18746,0.50005 1.96871,0.85942 2.34375,1.07812 l 1.125,0.70313 c 0.49996,0.43755 0.96871,0.85942 1.40625,1.26562 l 0.70312,0.89063 0.5625,1.03125 0.1875,0.5625 0.1875,1.125 c 0.0312,0.18754 0.0468,0.53129 0.0469,1.03125 -4e-5,1.84379 -0.62504,3.65629 -1.875,5.4375 -0.43754,0.62504 -1.10941,1.39066 -2.01563,2.29687 l -0.46875,0.46875 -1.35937,0.375 c -0.68753,0.12504 -1.18753,0.18754 -1.5,0.1875 l -0.98438,-0.0937"
       id="path3108"
       style="font-size:48px;font-style:normal;font-variant:normal;font-weight:bold;font-stretch:normal;text-align:center;line-height:125%;letter-spacing:0px;word-spacing:0px;writing-mode:lr-tb;text-anchor:middle;fill:#ffffff;fill-opacity:0.64610392;stroke:none;font-family:'A.C.M.E. Explosive';-inkscape-font-specification:'A.C.M.E. Explosive Bold'" />
    <path
       d="m 326.02199,609.63177 c 0.59372,-0.0312 1.49997,5e-5 2.71875,0.0937 0.90622,0.0625 1.7656,0.20318 2.57812,0.42188 l 1.59375,0.42187 c 0.93747,0.37505 1.6406,0.67193 2.10938,0.89063 l 1.17187,0.75 0.5625,0.42187 0.46875,0.46875 0.46875,0.5625 0.32813,0.5625 0.1875,0.375 c 0.81246,1.2813 1.32809,2.42192 1.54687,3.42188 0.0937,0.43754 0.14059,0.93754 0.14063,1.5 -4e-5,0.31254 -0.0313,0.81254 -0.0937,1.5 -0.0938,0.31254 -0.21879,0.79691 -0.375,1.45312 -0.81254,1.87504 -1.73441,3.45316 -2.76563,4.73438 -1.71878,2.09378 -3.32815,3.9219 -4.82812,5.48437 -0.90628,0.78128 -1.81253,1.56253 -2.71875,2.34375 -1.03128,0.90628 -1.8594,1.76565 -2.48438,2.57813 l -0.98437,1.26562 0.28125,0.79688 1.17187,2.57812 2.01563,2.67188 1.45312,1.45312 2.20313,1.92188 1.07812,1.26562 0.28125,0.51563 0.23438,0.5625 0.1875,0.60937 0,0.65625 -0.14063,0.65625 -0.28125,0.60938 -0.42187,0.46875 -0.51563,0.42187 -0.51562,0.28125 -1.21875,0.375 -1.35938,0.23438 -1.26562,0.14062 c -0.56253,-0.31249 -1.1719,-0.67187 -1.82813,-1.07812 -3.68752,-2.34374 -6.89064,-5.79686 -9.60937,-10.35938 -1.28126,-0.12498 -2.17189,-0.17185 -2.67188,-0.14062 -0.75001,0.0625 -1.31251,0.29689 -1.6875,0.70312 -0.43751,0.68752 -0.79688,1.68752 -1.07812,3 -0.0313,0.12502 -0.14064,0.70314 -0.32813,1.73438 l -0.0469,0.65625 -0.23438,0.89062 -0.46875,0.75 -0.51562,0.65625 -0.60938,0.51563 -0.65625,0.46875 -0.70312,0.32812 -0.75,0.23438 -0.79688,0.1875 -0.79687,0 -0.84375,-0.23438 -0.79688,-0.46875 -0.60937,-0.84375 -0.23438,-0.9375 0.0469,-0.98437 0.14062,-0.84375 c 0.1875,-3.40624 0.51563,-6.76561 0.98438,-10.07813 1.09375,-7.87497 2.68749,-14.15621 4.78125,-18.84375 0.43749,-0.99996 1.17187,-2.48433 2.20312,-4.45312 l 1.21875,-2.01563 1.03125,-0.75 1.6875,-1.07812 1.82813,-0.84375 1.875,-0.65625 1.92187,-0.46875 c 0.96873,-0.2187 1.92186,-0.35933 2.85938,-0.42188 l 1.875,-0.0937 m -6.04688,9.42188 c -0.81251,0.34379 -1.65626,1.12504 -2.53125,2.34375 -1.06251,2.56254 -1.87501,5.20316 -2.4375,7.92187 -0.25001,1.21878 -0.45313,2.62503 -0.60937,4.21875 0.18749,0.62503 0.43749,1.00003 0.75,1.125 0.68749,0.12503 1.67186,-0.18747 2.95312,-0.9375 2.43749,-1.43747 5.09373,-3.65622 7.96875,-6.65625 1.09373,-1.12496 1.93748,-2.10934 2.53125,-2.95312 0.96873,-1.31246 1.46873,-2.46871 1.5,-3.46875 0.0312,-0.43746 -0.0781,-0.99996 -0.32812,-1.6875 -1.34378,-0.56246 -2.68753,-0.81246 -4.03125,-0.75 -1.40627,0.0625 -2.76565,0.26567 -4.07813,0.60937 l -0.5625,0.14063 -0.60937,0 c -0.0938,4e-5 -0.26564,0.0313 -0.51563,0.0937"
       id="path3110"
       style="font-size:48px;font-style:normal;font-variant:normal;font-weight:bold;font-stretch:normal;text-align:center;line-height:125%;letter-spacing:0px;word-spacing:0px;writing-mode:lr-tb;text-anchor:middle;fill:#ffffff;fill-opacity:0.64610392;stroke:none;font-family:'A.C.M.E. Explosive';-inkscape-font-specification:'A.C.M.E. Explosive Bold'" />
    <path
       d="m 353.49074,630.5849 -0.375,0.84375 0.32812,0.0937 5.01563,-0.23438 2.90625,-1.40625 0.14062,-0.23437 -0.0937,-5.85938 -0.75,-1.5 -0.28125,0.14063 -3.23437,2.76562 -3.65625,5.39063 m 15.14062,-13.5 0.42188,2.4375 c -4e-5,0.18754 0.0625,0.85941 0.1875,2.01562 0.24996,2.53129 0.35934,5.18754 0.32812,7.96875 -3e-5,0.68753 -0.0313,1.70316 -0.0937,3.04688 -3e-5,0.56253 -0.0469,1.59378 -0.14062,3.09375 l -0.23438,3 c -0.28128,3.59377 -0.6719,6.68751 -1.17187,9.28125 l -0.23438,1.21875 -0.23437,0.65625 -0.46875,0.5625 -0.51563,0.42187 -0.51562,0.32813 -0.60938,0.23437 -0.5625,0.14063 -0.60937,0.0937 -0.65625,0.0469 -0.60938,0 -0.65625,-0.14062 -0.60937,-0.1875 -0.65625,-0.375 -0.51563,-0.51563 -0.42187,-0.70312 -0.1875,-0.79688 c -3e-5,-0.99998 0.1406,-2.09373 0.42187,-3.28125 l 0.75,-3.14062 0.0937,-0.5625 c 0.0312,-1.06248 -0.0938,-1.98436 -0.375,-2.76563 -3.46877,3e-5 -8.31251,1.25002 -14.53125,3.75 -1.81251,3.00002 -3.59375,6.00002 -5.34375,9 l -0.60937,0.46875 -0.60938,0.23438 -0.5625,0.14062 -0.60937,0.0469 -0.60938,-0.0469 -0.60937,-0.0937 -0.60938,-0.1875 -0.60937,-0.28125 -0.51563,-0.375 -0.51562,-0.5625 -0.42188,-0.65625 -0.23437,-0.79687 -0.0469,-0.84375 0.14063,-0.84375 0.32812,-0.84375 c 0.25,-0.65624 0.98438,-2.15624 2.20313,-4.5 2.84374,-5.46873 6.74999,-11.5781 11.71875,-18.32813 1.68748,-2.31246 3.51561,-4.62496 5.48437,-6.9375 0.24998,-0.31245 0.73436,-0.85933 1.45313,-1.64062 l 1.82812,-1.875 c 0.59373,-0.5937 1.40623,-1.31245 2.4375,-2.15625 l 0.79688,-0.51563 0.75,-0.46875 0.75,-0.32812 0.79687,-0.1875 0.79688,0 0.9375,0.23437 0.79687,0.42188 0.70313,0.60937 0.5625,0.70313 0.46875,0.79687 0.42187,0.89063 0.375,0.9375 0.28125,1.03125 0.28125,1.125"
       id="path3112"
       style="font-size:48px;font-style:normal;font-variant:normal;font-weight:bold;font-stretch:normal;text-align:center;line-height:125%;letter-spacing:0px;word-spacing:0px;writing-mode:lr-tb;text-anchor:middle;fill:#ffffff;fill-opacity:0.64610392;stroke:none;font-family:'A.C.M.E. Explosive';-inkscape-font-specification:'A.C.M.E. Explosive Bold'" />
    <path
       d="m 397.22511,609.16302 c 0.56248,6e-5 1.54685,-0.0312 2.95313,-0.0937 l 0.89062,0.0937 0.79688,0.32813 0.70312,0.46875 0.46875,0.65625 0.28125,0.75 0.0937,0.79687 -0.0469,0.75 -0.23438,0.70313 -0.32812,0.65625 -0.42188,0.65625 -0.51562,0.5625 -0.60938,0.51562 -0.70312,0.46875 -0.79688,0.375 -2.48437,0.79688 -6.32813,1.35937 -6.32812,28.3125 -1.07813,2.34375 -0.46875,0.84375 -0.98437,1.26563 -0.5625,0.46875 -0.65625,0.32812 -0.75,0.0937 -0.70313,-0.0937 -0.5625,-0.28125 -0.75,-0.60937 c -0.0937,-0.12499 -0.3125,-0.34374 -0.65625,-0.65625 l -0.84375,-0.75 c 0.625,-3.15624 1.51562,-8.18748 2.67188,-15.09375 1.09374,-6.53122 1.99999,-11.54684 2.71875,-15.04688 -1.18751,4e-5 -2.35939,-0.0156 -3.51563,-0.0469 l -3.51562,-0.0937 c -0.62501,-0.0312 -1.26563,-0.14059 -1.92188,-0.32813 l -0.60937,-0.1875 -0.5625,-0.23437 -0.51563,-0.375 -0.51562,-0.51563 -0.23438,-0.79687 0,-0.84375 0.28125,-0.65625 0.375,-0.51563 0.46875,-0.42187 1.07813,-0.75 c 0.90625,-0.4687 1.68749,-0.8437 2.34375,-1.125 0.46874,-0.1562 1.28124,-0.39058 2.4375,-0.70313 7.18748,-1.93745 13.73435,-3.06245 19.64062,-3.375"
       id="path3114"
       style="font-size:48px;font-style:normal;font-variant:normal;font-weight:bold;font-stretch:normal;text-align:center;line-height:125%;letter-spacing:0px;word-spacing:0px;writing-mode:lr-tb;text-anchor:middle;fill:#ffffff;fill-opacity:0.64610392;stroke:none;font-family:'A.C.M.E. Explosive';-inkscape-font-specification:'A.C.M.E. Explosive Bold'" />
    <path
       d="m 428.72511,609.9599 1.21875,0.51562 1.17188,0.89063 0.46875,0.42187 0.42187,0.51563 0.28125,0.51562 0.23438,0.60938 0.0469,0.70312 -0.0937,0.65625 -0.23437,0.60938 -0.375,0.51562 -0.42188,0.46875 -0.46875,0.375 -1.17187,0.70313 -1.82813,0.79687 c -1.31253,-0.37495 -2.40627,-0.56245 -3.28125,-0.5625 -1.15627,5e-5 -2.90627,0.2813 -5.25,0.84375 -0.21877,0.0313 -0.75002,0.1563 -1.59375,0.375 -0.21877,0.0625 -0.51564,0.1563 -0.89062,0.28125 -1.62502,0.56254 -2.92189,1.45317 -3.89063,2.67188 -0.93751,2.71878 -1.56251,5.56253 -1.875,8.53125 0.56249,0.15628 1.12499,0.20315 1.6875,0.14062 1.34374,-0.15622 2.90623,-0.51559 4.6875,-1.07812 0.78123,-0.24997 1.78123,-0.51559 3,-0.79688 l 1.07813,-0.14062 c 0.84372,3e-5 1.37497,0.0157 1.59375,0.0469 0.68747,0.0938 1.3281,0.28129 1.92187,0.5625 l 0.70313,0.14063 0.79687,0.32812 0.75,0.375 0.60938,0.5625 0.46875,0.65625 0.23437,0.75 0.0469,0.79688 -0.1875,0.70312 -0.28125,0.65625 -0.375,0.5625 -0.46875,0.51563 -0.5625,0.46875 -0.5625,0.42187 -0.65625,0.375 -0.70313,0.32813 -0.89062,0.32812 c -2.09378,0.0625 -3.96877,0.20315 -5.625,0.42188 -0.50002,0.0625 -1.39065,0.2344 -2.67188,0.51562 -1.78126,0.37503 -3.79689,0.95315 -6.04687,1.73438 -0.21876,0.81252 -0.59376,1.84377 -1.125,3.09375 0.96874,2e-5 2.01561,-0.0469 3.14062,-0.14063 3.31249,-0.28123 6.54686,-0.84373 9.70313,-1.6875 l 1.21875,-0.32812 0.9375,0.60937 0.42187,0.42188 0.375,0.51562 0.28125,0.51563 0.14063,0.5625 0.0937,0.5625 0.0469,0.5625 -0.0469,0.60937 -0.14063,0.60938 -0.1875,0.5625 -0.28125,0.60937 -0.375,0.51563 -0.42187,0.51562 -0.51563,0.51563 -0.60937,0.42187 -0.89063,0.5625 -2.01562,0.0469 c -1.28127,0.0313 -3.71877,0.43751 -7.3125,1.21875 l -2.15625,0.46875 c -1.25001,0.31251 -2.51564,0.60938 -3.79688,0.89062 -1.5,0.34376 -2.78125,0.53126 -3.84375,0.5625 l -1.26562,0.0469 -0.60938,-0.0469 -0.5625,-0.0937 -0.60937,-0.1875 -0.5625,-0.32812 -0.46875,-0.375 -0.42188,-0.5625 -0.375,-0.9375 9.65625,-34.3125 c 1.24999,-0.74996 2.48437,-1.49995 3.70313,-2.25 1.46873,-0.87495 2.76561,-1.54683 3.89062,-2.01563 l 2.20313,-0.9375 c 1.46873,-0.4687 2.6406,-0.79682 3.51562,-0.98437 0.37498,-0.0937 1.28123,-0.2187 2.71875,-0.375 l 1.92188,0 c 1.53122,0.25005 2.73434,0.50005 3.60937,0.75"
       id="path3116"
       style="font-size:48px;font-style:normal;font-variant:normal;font-weight:bold;font-stretch:normal;text-align:center;line-height:125%;letter-spacing:0px;word-spacing:0px;writing-mode:lr-tb;text-anchor:middle;fill:#ffffff;fill-opacity:0.64610392;stroke:none;font-family:'A.C.M.E. Explosive';-inkscape-font-specification:'A.C.M.E. Explosive Bold'" />
  </g>
  <g
     transform="matrix(0.23991678,0,0,0.23991678,-240.37674,-102.36306)"
     id="layer1">
    <g
       transform="translate(1451.0142,60.458925)"
       id="g3074">
      <path
         d="m 318.90625,673.34375 c -48.08326,4.94972 -103.23281,43.85847 -81.3125,52.34375 21.9203,8.4853 85.54168,12.02449 97.5625,2.125 6.17704,-5.08698 17.22878,-17.82688 18.53125,-29.78125 1.30423,11.95336 12.32356,24.69476 18.5,29.78125 12.02082,9.89949 75.67344,6.3603 97.59375,-2.125 21.92031,-8.48528 -33.22923,-47.39403 -81.3125,-52.34375 -24.75979,2.38648 -33.6655,10.70581 -34.78125,20.25 -1.11575,-9.54419 -10.02146,-17.86352 -34.78125,-20.25 z"
         id="path3806"
         style="fill:url(#radialGradient4090);fill-opacity:1;fill-rule:evenodd;stroke:#000000;stroke-width:5;stroke-linecap:butt;stroke-linejoin:miter;stroke-miterlimit:4;stroke-opacity:1;stroke-dasharray:none" />
      <path
         d="m 148.25,307.15625 c -23.60045,2.42945 -48.880982,13.04009 -65.9375,24.21875 25.83249,11.94683 57.41759,19.30933 91.65625,20.15625 4.38726,-5.77238 8.31756,-12.85024 9.0625,-19.6875 0.73903,6.77327 4.57719,13.78803 8.90625,19.53125 33.67611,-1.42584 64.60657,-9.14573 89.78125,-21.3125 -16.99533,-10.69111 -41.22228,-20.57115 -63.90625,-22.90625 -24.75979,2.38649 -33.6655,10.70581 -34.78125,20.25 -1.11575,-9.54418 -10.02146,-17.86352 -34.78125,-20.25 z"
         transform="translate(170.66411,366.20177)"
         id="path3194"
         style="fill:#000000;fill-opacity:0.31372549;fill-rule:evenodd;stroke:none" />
      <path
         d="m 516.8372,534.26593 a 165.56416,165.56416 0 1 1 -331.12832,0 165.56416,165.56416 0 1 1 331.12832,0 z"
         id="path2385"
         style="fill:url(#radialGradient3475);fill-opacity:1;fill-rule:nonzero;stroke:#000000;stroke-width:5;stroke-linecap:round;stroke-linejoin:miter;stroke-miterlimit:4;stroke-opacity:1;stroke-dasharray:none" />
      <path
         d="m 317.28125,424.09375 c -22.93473,0 -41.5625,21.43405 -41.5625,47.84375 0,26.40969 18.62777,47.84375 41.5625,47.84375 13.47812,0 25.43856,-7.41051 33.03125,-18.875 7.59217,11.47281 19.57866,18.875 33.0625,18.875 22.93473,0 41.56249,-21.43407 41.5625,-47.84375 0,-26.40969 -18.62777,-47.84374 -41.5625,-47.84375 -13.48227,0 -25.47019,7.40447 -33.0625,18.875 -7.59284,-11.46201 -19.55484,-18.87499 -33.03125,-18.875 z"
         id="path2387"
         style="fill:#ffffff;fill-opacity:1;fill-rule:nonzero;stroke:#000000;stroke-width:5;stroke-linecap:round;stroke-linejoin:miter;stroke-miterlimit:4;stroke-opacity:1;stroke-dasharray:none" />
      <path
         d="m 418.63184,583.05383 a 70.821175,70.821175 0 1 1 -141.64235,0 70.821175,70.821175 0 1 1 141.64235,0 z"
         transform="matrix(1.1333333,0,0,1.1333333,-41.338584,-43.746347)"
         id="path3167"
         style="fill:#ffffff;fill-opacity:1;fill-rule:nonzero;stroke:#000000;stroke-width:4.41176462;stroke-linecap:round;stroke-linejoin:miter;stroke-miterlimit:4;stroke-opacity:1;stroke-dasharray:none" />
      <path
         d="m 339.65625,122.03125 c 0.33607,4.30484 0.53125,8.64061 0.53125,13.03125 0,91.39142 -74.20233,165.5625 -165.59375,165.5625 -75.420172,0 -139.072758,-50.51292 -159.03125,-119.53125 6.659307,85.30068 78.030468,152.53125 165.03125,152.53125 91.39142,0 165.59375,-74.17108 165.59375,-165.5625 0,-15.97125 -2.30477,-31.41568 -6.53125,-46.03125 z"
         transform="translate(170.66411,366.20177)"
         id="path2411"
         style="fill:#000000;fill-opacity:0.31372549;fill-rule:nonzero;stroke:none" />
      <path
         d="m 352.29932,506.61344 c -14.479,0 -30.21704,13.18616 -29.58752,21.51425 0.62952,8.3281 25.81039,43.02853 31.47608,43.02853 5.6657,0 27.69895,-34.00642 27.06943,-43.72254 -0.62952,-9.71611 -19.51517,-21.51426 -28.95799,-20.82024 z"
         id="path3393"
         style="fill:#000000;fill-opacity:0.31372549;fill-rule:evenodd;stroke:none" />
      <path
         d="m 350.01399,498.27178 c -14.479,0 -30.21704,11.96091 -29.58752,19.51516 0.62952,7.55426 25.81039,39.03034 31.47608,39.03034 5.6657,0 27.69895,-30.84656 27.06943,-39.65986 -0.62952,-8.8133 -19.51517,-19.51517 -28.95799,-18.88564 z"
         id="path2391"
         style="fill:url(#linearGradient3211);fill-opacity:1;fill-rule:evenodd;stroke:#000000;stroke-width:5;stroke-linecap:butt;stroke-linejoin:miter;stroke-miterlimit:4;stroke-opacity:1;stroke-dasharray:none" />
      <path
         d="m 340.57116,487.36658 a 10.387106,10.387106 0 1 1 -20.77421,0 10.387106,10.387106 0 1 1 20.77421,0 z"
         transform="translate(2.4772587,-7)"
         id="path3163"
         style="fill:#000000;fill-opacity:1;fill-rule:nonzero;stroke:#000000;stroke-width:5;stroke-linecap:round;stroke-linejoin:miter;stroke-miterlimit:4;stroke-opacity:1;stroke-dasharray:none" />
      <path
         d="m 340.57116,487.36658 a 10.387106,10.387106 0 1 1 -20.77421,0 10.387106,10.387106 0 1 1 20.77421,0 z"
         transform="translate(39.659858,-7)"
         id="path3165"
         style="fill:#000000;fill-opacity:1;fill-rule:nonzero;stroke:#000000;stroke-width:5;stroke-linecap:round;stroke-linejoin:miter;stroke-miterlimit:4;stroke-opacity:1;stroke-dasharray:none" />
      <path
         d="m 226.40068,497.24676 c 48.1112,17.30003 -14.16343,94.14271 37.81914,161.19179 9.60838,12.39326 -57.86796,2.09077 -81.72278,-66.58505 -23.19831,-66.78576 -1.13236,-107.53908 43.90364,-94.60674 z"
         id="path3169"
         style="fill:#ffffff;fill-opacity:1;fill-rule:evenodd;stroke:#000000;stroke-width:5;stroke-linecap:butt;stroke-linejoin:miter;stroke-miterlimit:4;stroke-opacity:1;stroke-dasharray:none" />
      <path
         d="m 226.40068,497.24676 c 48.1112,17.30003 -42.58837,102.12367 37.81914,161.19179 22.62647,16.62162 -57.86796,2.09077 -81.72278,-66.58505 -23.19831,-66.78576 -1.13236,-107.53908 43.90364,-94.60674 z"
         id="path3793"
         style="fill:url(#radialGradient3483);fill-opacity:1;fill-rule:evenodd;stroke:#000000;stroke-width:5;stroke-linecap:butt;stroke-linejoin:miter;stroke-miterlimit:4;stroke-opacity:1;stroke-dasharray:none" />
      <path
         d="m 484.35799,497.24676 c -48.1112,17.30003 14.16343,94.14271 -37.81914,161.19179 -9.60838,12.39326 57.86796,2.09077 81.72278,-66.58505 23.19831,-66.78576 1.13236,-107.53908 -43.90364,-94.60674 z"
         id="path3800"
         style="fill:#ffffff;fill-opacity:1;fill-rule:evenodd;stroke:#000000;stroke-width:5;stroke-linecap:butt;stroke-linejoin:miter;stroke-miterlimit:4;stroke-opacity:1;stroke-dasharray:none" />
      <path
         d="m 484.35799,497.24676 c -48.1112,17.30003 42.58837,102.12367 -37.81914,161.19179 -22.62647,16.62162 57.86796,2.09077 81.72278,-66.58505 23.19831,-66.78576 1.13236,-107.53908 -43.90364,-94.60674 z"
         id="path3802"
         style="fill:url(#radialGradient4126);fill-opacity:1;fill-rule:evenodd;stroke:#000000;stroke-width:5;stroke-linecap:butt;stroke-linejoin:miter;stroke-miterlimit:4;stroke-opacity:1;stroke-dasharray:none" />
    </g>
  </g>
  <g
     style="font-size:69.05158234px;font-style:normal;font-variant:normal;font-weight:bold;font-stretch:normal;text-align:end;line-height:125%;letter-spacing:0px;word-spacing:0px;writing-mode:lr-tb;text-anchor:end;fill:url(#linearGradient4105);fill-opacity:1;stroke:none;font-family:'A.C.M.E. Explosive';-inkscape-font-specification:'A.C.M.E. Explosive Bold'"
     id="text3217">
    <path
       d="m 28.770803,128.62464 -0.539465,1.2138 0.472032,0.13487 7.215351,-0.33717 4.180858,-2.02299 0.202299,-0.33717 -0.134866,-8.42915 -1.078931,-2.15786 -0.404599,0.2023 -4.65289,3.97856 -5.259789,7.75481 m 21.780919,-19.42075 0.606899,3.50652 c -4.8e-5,0.26979 0.08986,1.23633 0.269733,2.89963 0.359595,3.64144 0.516939,7.46265 0.472032,11.46364 -4.8e-5,0.98906 -0.045,2.45011 -0.134866,4.38316 -4.9e-5,0.80923 -0.06748,2.29276 -0.2023,4.45059 l -0.337166,4.31572 c -0.404646,5.16991 -0.966589,9.62049 -1.685829,13.35177 l -0.337166,1.75327 -0.337166,0.94406 -0.674332,0.8092 -0.741765,0.6069 -0.741765,0.47203 -0.876632,0.33717 -0.809198,0.2023 -0.876631,0.13486 -0.944065,0.0674 -0.876631,0 -0.944065,-0.2023 -0.876631,-0.26974 -0.944065,-0.53946 -0.741765,-0.74177 -0.606899,-1.0115 -0.269732,-1.14636 c -3.5e-5,-1.43856 0.202264,-3.012 0.606898,-4.72032 l 1.078931,-4.51803 0.134867,-0.80919 c 0.04492,-1.52846 -0.134903,-2.85465 -0.539466,-3.97856 -4.990086,3e-5 -11.958175,1.79824 -20.904287,5.39465 -2.607429,4.31575 -5.169888,8.63147 -7.687384,12.94717 l -0.876631,0.67434 -0.8766315,0.33716 -0.8091982,0.2023 -0.8766314,0.0674 -0.8766314,-0.0674 -0.8766314,-0.13486 -0.8766315,-0.26974 -0.8766314,-0.4046 -0.741765,-0.53946 -0.7417651,-0.8092 -0.6068986,-0.94406 -0.337166,-1.14637 -0.067433,-1.2138 0.2022995,-1.21379 0.4720323,-1.2138 c 0.3596449,-0.94405 1.4160971,-3.10191 3.1693597,-6.47359 4.0909409,-7.86717 9.7103671,-16.65595 16.8582961,-26.36637 2.427574,-3.32665 5.057466,-6.65335 7.889683,-9.98011 0.359617,-0.4495 1.056426,-1.23622 2.090429,-2.36017 l 2.629894,-2.69732 c 0.854122,-0.85409 2.022963,-1.88807 3.506526,-3.10193 l 1.146364,-0.74176 1.078931,-0.67434 1.078931,-0.472029 1.146364,-0.269733 1.146364,0 1.348664,0.337166 1.146364,0.606896 1.011498,0.87663 0.809198,1.0115 0.674332,1.14637 0.606899,1.28123 0.539465,1.34866 0.404599,1.48353 0.404599,1.6184"
       style=""
       id="path3050" />
    <path
       d="m 76.176333,117.3633 c -0.179844,0.40465 -0.494532,1.1689 -0.944065,2.29273 -1.348683,3.32675 -2.607435,7.53008 -3.776258,12.61001 -0.85417,3.68638 -1.461069,7.41768 -1.820696,11.19391 4.990035,-1.34864 9.665398,-3.41659 14.026103,-6.20386 l 3.236793,-2.09043 3.101926,-2.29272 2.764761,-2.4276 2.495028,-2.56246 1.078931,-1.28123 0.944064,-1.28123 0.809199,-1.28123 0.674331,-1.28123 0.539466,-1.28123 0.404599,-1.2138 0.2023,-1.2138 0.134865,-1.21379 -0.06743,-1.14637 -0.269733,-1.07893 -0.337166,-1.14636 -0.606899,-1.14637 -0.337166,-0.47203 c -3.281789,-0.58436 -6.473624,-0.78666 -9.575512,-0.6069 -3.012048,0.17988 -6.001583,0.83173 -8.968614,1.95556 -1.978064,0.7643 -3.214338,1.82075 -3.708825,3.16936 m -9.30578,-9.44064 c 0.584408,-0.40454 1.663338,-1.10135 3.236793,-2.09043 4.405614,-2.78717 9.710353,-4.74273 15.914232,-5.866689 1.033942,-0.179752 2.472516,-0.337096 4.315724,-0.472033 1.933046,-0.134795 4.180817,-0.134795 6.743319,0 1.843128,0.08998 3.596389,0.269804 5.259789,0.539462 l 1.8207,0.47204 1.68582,0.67433 c 0.80915,0.44962 1.52844,0.89918 2.15787,1.34866 0.40454,0.35971 0.98896,0.92166 1.75326,1.68583 0.40454,0.53953 0.87657,1.21386 1.4161,2.023 1.03391,2.06801 1.70824,3.77632 2.02299,5.12492 0.4495,1.93314 0.76418,4.2933 0.94407,7.08048 l 0.0674,1.0115 -0.4046,1.75326 -0.67433,1.68583 -0.87663,1.68583 -1.0115,1.8207 -1.28123,1.75326 -1.34866,1.88813 -1.6184,1.88813 -1.68583,1.88813 -3.84369,3.84369 -4.248293,3.77626 -4.518023,3.70883 -4.720323,3.50652 -4.85519,3.16936 -2.427594,1.48353 -2.427595,1.34866 -2.360162,1.2138 -2.360161,1.07893 -2.292728,0.94407 -2.225296,0.74176 -2.225295,0.6069 -2.090429,0.4046 -2.022995,0.13487 -1.955562,-0.0674 -1.820696,-0.33716 -1.753263,-0.67433 -1.550964,-1.0115 -1.888129,-2.023 c 1.933083,-11.10397 4.383153,-21.51115 7.350217,-31.22156 1.483522,-4.76523 2.96705,-9.10343 4.450591,-13.01461 l 1.348663,-3.50652"
       style=""
       id="path3052" />
    <path
       d="m 128.36962,116.82384 c -0.85417,5.48461 -1.39364,10.29484 -1.6184,14.4307 l -0.13486,2.36016 c -0.045,0.76428 -0.0674,1.551 -0.0674,2.36016 l 1.48353,-1.82069 19.2859,-28.52424 1.75326,-1.8207 0.74176,-0.6069 0.87664,-0.53946 0.94406,-0.33717 1.14636,-0.13486 1.28123,0.4046 0.87664,0.80919 0.53946,0.94407 0.26973,0.94406 0.13487,0.94407 0,2.09043 -0.53947,4.04599 c -0.40464,0.85421 -1.1464,2.40517 -2.22529,4.65289 -2.06799,4.13595 -4.42815,8.24937 -7.08048,12.34027 -0.26977,0.40464 -0.71933,1.10145 -1.34867,2.09043 -2.51754,3.77629 -5.59698,8.02458 -9.23834,12.74487 -1.75329,2.33771 -5.01256,6.45113 -9.77782,12.34027 l -1.21379,1.4161 -1.2138,1.2138 -1.28123,0.8092 -1.28123,0.47203 c -0.67435,0.13487 -1.30372,0.20231 -1.88813,0.2023 -0.58443,-0.0899 -1.43858,-0.24725 -2.56246,-0.47203 l -1.95557,-0.4046 c -0.17982,-1.3037 -0.35964,-3.28174 -0.53946,-5.93412 -0.35965,-5.16986 -0.47204,-10.24982 -0.33717,-15.2399 0.22478,-9.12592 1.23627,-18.09453 3.0345,-26.90584 0.22477,-1.12383 0.65184,-3.12435 1.28123,-6.00156 l 0.87663,-3.43909 0.67433,-1.28123 0.8092,-1.078932 0.94406,-0.944065 1.07893,-0.741765 1.14637,-0.472032 1.2138,-0.269733 1.28123,-0.06743 1.28123,0.337166 1.21379,0.539465 1.0115,0.944065 0.8092,1.146364 0.53947,1.4161 0.26973,1.55096 0,1.68583 -0.26973,1.8207 c -0.98904,3.37171 -1.68585,6.40621 -2.09043,9.10348 l -0.13487,0.87663"
       style=""
       id="path3054" />
    <path
       d="m 192.43115,98.954043 1.75326,0.741765 1.68583,1.281232 0.67433,0.6069 0.6069,0.74176 0.4046,0.74177 0.33716,0.87663 0.0674,1.0115 -0.13487,0.94406 -0.33716,0.87663 -0.53947,0.74177 -0.6069,0.67433 -0.67433,0.53946 -1.68583,1.0115 -2.62989,1.14637 c -1.88817,-0.53941 -3.46161,-0.80914 -4.72033,-0.8092 -1.66339,6e-5 -4.18089,0.40466 -7.55251,1.2138 -0.31472,0.045 -1.07897,0.22483 -2.29273,0.53946 -0.31472,0.09 -0.7418,0.22484 -1.28123,0.4046 -2.33771,0.80926 -4.20336,2.09049 -5.59696,3.84369 -1.34868,3.91118 -2.24779,8.00212 -2.69732,12.27284 0.80917,0.22482 1.61837,0.29225 2.42759,0.2023 1.93306,-0.22473 4.18083,-0.74172 6.74332,-1.55096 1.12386,-0.3596 2.56243,-0.74172 4.31572,-1.14637 l 1.55097,-0.2023 c 1.21376,5e-5 1.978,0.0225 2.29272,0.0674 0.98899,0.13491 1.91057,0.40464 2.76476,0.8092 l 1.0115,0.2023 1.14637,0.47203 1.07893,0.53946 0.87663,0.8092 0.67433,0.94407 0.33717,1.07893 0.0674,1.14636 -0.26973,1.0115 -0.4046,0.94406 -0.53947,0.8092 -0.67433,0.74177 -0.8092,0.67433 -0.8092,0.6069 -0.94406,0.53946 -1.0115,0.47204 -1.28123,0.47203 c -3.01205,0.0899 -5.70937,0.29224 -8.09198,0.6069 -0.71932,0.0899 -2.00055,0.33719 -3.84369,0.74176 -2.56249,0.5395 -5.46211,1.37117 -8.69888,2.49503 -0.31471,1.16887 -0.85417,2.6524 -1.6184,4.45059 1.3936,2e-5 2.89961,-0.0674 4.51802,-0.2023 4.76526,-0.40457 9.41814,-1.21377 13.95867,-2.42759 l 1.75327,-0.47204 1.34866,0.87663 0.6069,0.6069 0.53946,0.74177 0.4046,0.74176 0.2023,0.8092 0.13487,0.8092 0.0674,0.8092 -0.0674,0.87663 -0.2023,0.87663 -0.26973,0.8092 -0.4046,0.87663 -0.53947,0.74177 -0.6069,0.74176 -0.74176,0.74177 -0.87663,0.60689 -1.28123,0.8092 -2.89963,0.0674 c -1.8432,0.045 -5.34973,0.62939 -10.51958,1.75326 l -3.10192,0.67433 c -1.79824,0.44957 -3.61893,0.87664 -5.46209,1.28123 -2.15787,0.49452 -4.00105,0.76425 -5.52952,0.8092 l -1.8207,0.0674 -0.87663,-0.0674 -0.8092,-0.13487 -0.87663,-0.26973 -0.8092,-0.47203 -0.67433,-0.53947 -0.6069,-0.8092 -0.53947,-1.34866 13.89124,-49.36109 c 1.7982,-1.07887 3.57394,-2.1578 5.32722,-3.23679 2.11289,-1.25869 3.97854,-2.22523 5.59696,-2.89963 l 3.16936,-1.348666 c 2.11287,-0.674261 3.7987,-1.146292 5.05749,-1.416097 0.53943,-0.134794 1.84314,-0.314616 3.91112,-0.539465 l 2.76476,0 c 2.20278,0.359716 3.93356,0.719359 5.19236,1.078931"
       style=""
       id="path3056" />
    <path
       d="m 229.5194,132.67064 c 0.35961,0.5395 0.96651,1.39365 1.8207,2.56246 1.79818,-4.18082 3.68631,-10.2498 5.66439,-18.20696 0.89906,-3.68629 1.91056,-7.46255 3.03449,-11.32878 0.44951,-3.01195 2.09038,-5.23724 4.92262,-6.675884 0.53942,-0.269661 1.14632,-0.494438 1.8207,-0.674332 l 1.28123,-0.202299 c 0.62932,7.2e-5 1.28118,0.0675 1.95556,0.202299 l 1.28123,0.539466 0.6069,0.404599 0.47203,0.539465 0.47204,0.606896 0.33716,0.67433 0.26973,0.67434 0.13487,0.74176 0.0674,1.55097 c -0.09,0.67439 -0.31474,1.68589 -0.67433,3.03449 l -12.07054,46.05686 c -0.40464,1.12391 -0.92163,2.20284 -1.55096,3.2368 l -0.53947,0.87663 -0.67433,0.74176 -0.8092,0.67434 -0.87663,0.53946 -1.0115,0.33717 -1.07893,0.13486 -1.01149,-0.13486 -1.0115,-0.4046 -0.87663,-0.53947 -0.74177,-0.6069 -0.74176,-0.80919 c -0.85419,-0.94406 -2.40515,-3.14687 -4.65289,-6.60846 -2.2478,-3.46154 -3.82124,-5.8217 -4.72033,-7.08048 -1.79824,-2.60739 -3.50654,-4.85516 -5.12492,-6.74332 -1.07895,-1.25872 -2.38266,-2.5849 -3.91112,-3.97856 -1.03399,1.97808 -1.77576,5.08 -2.2253,9.30578 -0.58443,5.43963 -1.3262,9.08102 -2.22529,10.92418 l -0.94407,1.95556 -0.67433,1.2138 -0.67433,1.0115 -0.8092,0.94406 -0.87663,0.74177 -1.0115,0.53946 -1.2138,0.33717 -1.28123,-0.0674 -1.21379,-0.53946 -0.94407,-0.8092 -0.67433,-0.94406 -0.47203,-1.07894 -0.33717,-1.21379 -0.2023,-1.28123 -0.13487,-1.4161 0,-1.68583 c 1.07893,-8.58646 2.87715,-17.73489 5.39466,-27.44531 1.39361,-5.3946 3.01201,-10.92412 4.85519,-16.58856 l 1.6184,-2.49503 0.74176,-0.94406 0.8092,-0.74177 0.8092,-0.67433 0.87663,-0.47203 1.0115,-0.26974 1.07893,0 1.01149,0.2023 0.87664,0.4046 0.67433,0.53947 1.07893,1.2138 c 0.49449,0.71935 0.94404,1.46111 1.34866,2.22529 l 0.74177,2.49503 c 1.84315,6.114 4.20331,12.09307 7.08048,17.93723 1.16881,2.29277 2.45004,4.4731 3.84369,6.54102"
       style=""
       id="path3058" />
    <path
       d="m 288.32115,97.807679 c 0.80916,7.2e-5 2.22525,-0.04488 4.24829,-0.134867 l 1.28123,0.134867 1.14636,0.472032 1.0115,0.674332 0.67433,0.944065 0.4046,1.078932 0.13487,1.14636 -0.0674,1.07893 -0.33716,1.0115 -0.47203,0.94407 -0.6069,0.94406 -0.74177,0.8092 -0.87663,0.74176 -1.0115,0.67434 -1.14636,0.53946 -3.57396,1.14637 -9.10348,1.95556 -9.10348,40.72964 -1.55096,3.37166 -0.67433,1.2138 -1.4161,1.82069 -0.8092,0.67434 -0.94406,0.47203 -1.07894,0.13487 -1.01149,-0.13487 -0.8092,-0.4046 -1.07893,-0.87663 c -0.13488,-0.17981 -0.44957,-0.4945 -0.94407,-0.94407 l -1.21379,-1.07893 c 0.8991,-4.54048 2.18032,-11.7783 3.84369,-21.71348 1.57342,-9.39565 2.87713,-16.61099 3.91112,-21.64606 -1.70832,6e-5 -3.39415,-0.0224 -5.05749,-0.0674 l -5.05749,-0.13487 c -0.89911,-0.0449 -1.8207,-0.20224 -2.76476,-0.47203 l -0.87663,-0.26973 -0.8092,-0.33717 -0.74176,-0.53946 -0.74177,-0.74177 -0.33716,-1.14636 0,-1.2138 0.4046,-0.94406 0.53946,-0.74177 0.67433,-0.6069 1.55097,-1.07893 c 1.3037,-0.67426 2.42759,-1.21373 3.37166,-1.61839 0.67432,-0.22471 1.84316,-0.56188 3.50652,-1.0115 10.33974,-2.78717 19.7579,-4.405565 28.25451,-4.855191"
       style=""
       id="path3060" />
    <path
       d="m 330.80406,154.38412 -0.74176,0.8092 -0.74177,0.74177 -0.74176,0.60689 -0.8092,0.53947 -0.74177,0.4046 -0.8092,0.33716 -0.80919,0.2023 -0.8092,0.0674 -0.8092,-0.0674 -0.87663,-0.2023 -0.74177,-0.47203 -0.67433,-0.67433 -0.4046,-0.87663 -0.2023,-0.87663 0,-0.94407 c 0.94404,-2.87713 1.66332,-5.70932 2.15787,-8.49658 -3.73134,2.87717 -8.22688,6.00157 -13.48664,9.37321 -2.65239,1.70832 -5.14742,3.19185 -7.48509,4.45059 -1.2138,0.35966 -3.0345,0.76426 -5.46208,1.2138 -1.07894,0.0899 -1.70832,0.13488 -1.88813,0.13487 -1.03398,-0.045 -1.84318,-0.20229 -2.4276,-0.47203 l -1.14636,-0.53947 -1.07893,-0.8092 -0.4046,-0.53946 -0.33717,-0.6069 -0.47203,-1.28123 -0.26973,-1.4161 c 0,-1.30369 0.0225,-2.09041 0.0674,-2.36016 0.31469,-1.88811 0.53947,-3.12438 0.67433,-3.70883 2.69733,-11.68838 5.61943,-22.23043 8.76632,-31.62616 1.16883,-3.46151 2.36015,-6.496 3.57396,-9.10348 0.26972,-0.5394 0.74175,-1.50594 1.41609,-2.89963 l 1.6184,-2.09043 1.48353,-1.55096 0.8092,-0.6069 0.8092,-0.53946 0.94406,-0.33717 1.07893,-0.13487 1.07893,0.26974 0.94407,0.47203 0.74176,0.74176 0.53947,0.8092 0.4046,0.87663 0.33716,1.0115 0.53947,2.6299 c -3.28177,10.7444 -7.17042,22.52272 -11.66594,35.33499 -0.22479,0.98904 -0.33718,1.84319 -0.33717,2.56246 l 0,0.0674 c 0.71927,-0.13484 1.75325,-0.56192 3.10193,-1.28123 8.8562,-6.56346 16.56605,-13.30678 23.12958,-20.22996 l 6.06899,-22.72498 0.67433,-0.876632 0.6069,-0.539465 0.6069,-0.472033 0.67433,-0.404599 0.74176,-0.337166 0.87663,-0.202299 0.87664,-0.06743 0.94406,0.06743 0.94406,0.269732 0.87664,0.539466 0.74176,0.809198 0.6069,0.944068 0.4046,1.01149 0.26973,1.14637 0.0674,1.28123 0,1.55096 -1.21379,6.87819 c -1.84323,10.42971 -5.75435,24.11863 -11.73338,41.06681 l -0.87663,1.14636"
       style=""
       id="path3062" />
    <path
       d="m 372.9498,98.482011 c 0.85412,-0.04488 2.15783,7.1e-5 3.91112,0.134866 1.30368,0.08998 2.53995,0.292282 3.70883,0.606899 l 2.29273,0.606898 c 1.34862,0.539536 2.36012,0.966616 3.03449,1.281226 l 1.68583,1.07894 0.8092,0.60689 0.67433,0.67434 0.67433,0.80919 0.47204,0.8092 0.26973,0.53947 c 1.16879,1.84323 1.91055,3.48411 2.22529,4.92262 0.13482,0.62944 0.20225,1.34872 0.2023,2.15786 -5e-5,0.44961 -0.045,1.1689 -0.13486,2.15786 -0.13492,0.44961 -0.31474,1.14642 -0.53947,2.09043 -1.16889,2.69738 -2.49508,4.96763 -3.97856,6.81076 -2.47259,3.01205 -4.7878,5.64195 -6.94561,7.88968 -1.30375,1.12392 -2.60746,2.24781 -3.91113,3.37166 -1.48356,1.30374 -2.67488,2.54001 -3.57396,3.70882 l -1.4161,1.8207 0.4046,1.14636 1.68583,3.70883 2.89963,3.84369 2.09043,2.09043 3.16936,2.76476 1.55096,1.8207 0.4046,0.74176 0.33717,0.8092 0.26973,0.87663 0,0.94406 -0.2023,0.94407 -0.4046,0.87663 -0.6069,0.67433 -0.74176,0.6069 -0.74177,0.4046 -1.75326,0.53947 -1.95556,0.33716 -1.8207,0.2023 c -0.80923,-0.44955 -1.68586,-0.96653 -2.62989,-1.55096 -5.30478,-3.37165 -9.91271,-8.33922 -13.82381,-14.90274 -1.84319,-0.1798 -3.12442,-0.24723 -3.84369,-0.2023 -1.07894,0.0899 -1.88814,0.4271 -2.42759,1.0115 -0.62939,0.98904 -1.14638,2.42762 -1.55097,4.31573 -0.045,0.17983 -0.20231,1.01151 -0.47203,2.49502 l -0.0674,0.94407 -0.33717,1.28123 -0.67433,1.07893 -0.74176,0.94406 -0.87664,0.74177 -0.94406,0.67433 -1.0115,0.47203 -1.07893,0.33717 -1.14636,0.26973 -1.14637,0 -1.21379,-0.33716 -1.14637,-0.67434 -0.87663,-1.21379 -0.33717,-1.34867 0.0674,-1.41609 0.2023,-1.2138 c 0.26973,-4.90013 0.74176,-9.73283 1.41609,-14.49814 1.57344,-11.32873 3.86617,-20.36477 6.87819,-27.10814 0.62937,-1.43851 1.68582,-3.5739 3.16936,-6.40615 l 1.75326,-2.89963 1.48353,-1.07893 2.4276,-1.55096 2.62989,-1.2138 2.69733,-0.944062 2.76476,-0.674332 c 1.39359,-0.314617 2.76473,-0.516917 4.11342,-0.606899 l 2.69733,-0.134866 m -8.69888,13.554069 c -1.16887,0.49457 -2.38266,1.61845 -3.64139,3.37166 -1.52851,3.6864 -2.69735,7.48513 -3.50653,11.39621 -0.35966,1.7533 -0.65187,3.7763 -0.87663,6.06899 0.26972,0.89914 0.62936,1.43861 1.07893,1.61839 0.989,0.17986 2.4051,-0.26969 4.24829,-1.34866 3.5065,-2.06791 7.32771,-5.25975 11.46364,-9.57551 1.57341,-1.61835 2.78721,-3.03445 3.6414,-4.24829 1.39358,-1.88808 2.11286,-3.55143 2.15786,-4.99006 0.0449,-0.62932 -0.11243,-1.43852 -0.47204,-2.4276 -1.93312,-0.80913 -3.8662,-1.16878 -5.79925,-1.07893 -2.02302,0.09 -3.97858,0.38218 -5.86669,0.87664 l -0.80919,0.20229 -0.87664,0 c -0.13489,6e-5 -0.38214,0.045 -0.74176,0.13487"
       style=""
       id="path3064" />
    <path
       d="m 431.54922,98.954043 1.75326,0.741765 1.68583,1.281232 0.67433,0.6069 0.6069,0.74176 0.4046,0.74177 0.33717,0.87663 0.0674,1.0115 -0.13487,0.94406 -0.33716,0.87663 -0.53947,0.74177 -0.6069,0.67433 -0.67433,0.53946 -1.68583,1.0115 -2.62989,1.14637 c -1.88817,-0.53941 -3.46161,-0.80914 -4.72032,-0.8092 -1.66339,6e-5 -4.1809,0.40466 -7.55252,1.2138 -0.31472,0.045 -1.07896,0.22483 -2.29273,0.53946 -0.31472,0.09 -0.74179,0.22484 -1.28123,0.4046 -2.33771,0.80926 -4.20336,2.09049 -5.59695,3.84369 -1.34869,3.91118 -2.2478,8.00212 -2.69733,12.27284 0.80918,0.22482 1.61837,0.29225 2.42759,0.2023 1.93306,-0.22473 4.18083,-0.74172 6.74332,-1.55096 1.12386,-0.3596 2.56243,-0.74172 4.31572,-1.14637 l 1.55097,-0.2023 c 1.21376,5e-5 1.978,0.0225 2.29273,0.0674 0.98898,0.13491 1.91056,0.40464 2.76476,0.8092 l 1.01149,0.2023 1.14637,0.47203 1.07893,0.53946 0.87663,0.8092 0.67433,0.94407 0.33717,1.07893 0.0674,1.14636 -0.26973,1.0115 -0.4046,0.94406 -0.53946,0.8092 -0.67434,0.74177 -0.8092,0.67433 -0.80919,0.6069 -0.94407,0.53946 -1.0115,0.47204 -1.28123,0.47203 c -3.01205,0.0899 -5.70937,0.29224 -8.09198,0.6069 -0.71931,0.0899 -2.00054,0.33719 -3.84369,0.74176 -2.56248,0.5395 -5.46211,1.37117 -8.69888,2.49503 -0.31471,1.16887 -0.85417,2.6524 -1.6184,4.45059 1.3936,2e-5 2.89961,-0.0674 4.51803,-0.2023 4.76525,-0.40457 9.41813,-1.21377 13.95867,-2.42759 l 1.75326,-0.47204 1.34866,0.87663 0.6069,0.6069 0.53947,0.74177 0.4046,0.74176 0.20229,0.8092 0.13487,0.8092 0.0674,0.8092 -0.0674,0.87663 -0.2023,0.87663 -0.26973,0.8092 -0.4046,0.87663 -0.53947,0.74177 -0.60689,0.74176 -0.74177,0.74177 -0.87663,0.60689 -1.28123,0.8092 -2.89963,0.0674 c -1.8432,0.045 -5.34972,0.62939 -10.51958,1.75326 l -3.10192,0.67433 c -1.79824,0.44957 -3.61893,0.87664 -5.46209,1.28123 -2.15787,0.49452 -4.00104,0.76425 -5.52952,0.8092 l -1.8207,0.0674 -0.87663,-0.0674 -0.8092,-0.13487 -0.87663,-0.26973 -0.8092,-0.47203 -0.67433,-0.53947 -0.6069,-0.8092 -0.53946,-1.34866 13.89123,-49.36109 c 1.79821,-1.07887 3.57395,-2.1578 5.32723,-3.23679 2.11288,-1.25869 3.97853,-2.22523 5.59695,-2.89963 l 3.16936,-1.348666 c 2.11288,-0.674261 3.7987,-1.146292 5.05749,-1.416097 0.53943,-0.134794 1.84314,-0.314616 3.91112,-0.539465 l 2.76476,0 c 2.20278,0.359716 3.93356,0.719359 5.19236,1.078931"
       style=""
       id="path3066" />
  </g>
  <g
     transform="translate(-29.27622,-569.61882)"
     id="g3221"
     style="stroke:#000000;stroke-width:2;stroke-miterlimit:4;stroke-dasharray:none">
    <path
       d="m 94.693863,609.16302 c 0.562473,6e-5 1.546847,-0.0312 2.953125,-0.0937 l 0.890625,0.0937 0.796875,0.32813 0.703122,0.46875 0.46875,0.65625 0.28125,0.75 0.0937,0.79687 -0.0469,0.75 -0.23438,0.70313 -0.32812,0.65625 -0.421877,0.65625 -0.515625,0.5625 -0.609375,0.51562 -0.703125,0.46875 -0.796875,0.375 -2.484375,0.79688 -6.328125,1.35937 -6.328125,28.3125 -1.078125,2.34375 -0.46875,0.84375 -0.984375,1.26563 -0.5625,0.46875 -0.65625,0.32812 -0.75,0.0937 -0.703125,-0.0937 -0.5625,-0.28125 -0.75,-0.60937 c -0.09376,-0.12499 -0.312507,-0.34374 -0.65625,-0.65625 l -0.84375,-0.75 c 0.624994,-3.15624 1.515618,-8.18748 2.671875,-15.09375 1.09374,-6.53122 1.999989,-11.54684 2.71875,-15.04688 -1.18751,4e-5 -2.359384,-0.0156 -3.515625,-0.0469 l -3.515625,-0.0937 c -0.625004,-0.0312 -1.265628,-0.14059 -1.921875,-0.32813 l -0.609375,-0.1875 -0.5625,-0.23437 -0.515625,-0.375 -0.515625,-0.51563 -0.234375,-0.79687 0,-0.84375 0.28125,-0.65625 0.375,-0.51563 0.46875,-0.42187 1.078125,-0.75 c 0.906247,-0.4687 1.687496,-0.8437 2.34375,-1.125 0.468745,-0.1562 1.281244,-0.39058 2.4375,-0.70313 7.187486,-1.93745 13.734354,-3.06245 19.640625,-3.375"
       id="path3223"
       style="font-size:48px;font-style:normal;font-variant:normal;font-weight:bold;font-stretch:normal;text-align:center;line-height:125%;letter-spacing:0px;word-spacing:0px;writing-mode:lr-tb;text-anchor:middle;fill:#aa0000;fill-opacity:1;stroke:#000000;stroke-width:2;stroke-miterlimit:4;stroke-dasharray:none;font-family:'A.C.M.E. Explosive';-inkscape-font-specification:'A.C.M.E. Explosive Bold'" />
    <path
       d="m 124.22511,648.49115 -0.51562,0.5625 -0.51563,0.51562 -0.51562,0.42188 -0.5625,0.375 -0.51563,0.28125 -0.5625,0.23437 -0.5625,0.14063 -0.5625,0.0469 -0.5625,-0.0469 -0.60937,-0.14063 -0.51563,-0.32812 -0.46875,-0.46875 -0.28125,-0.60938 -0.14062,-0.60937 0,-0.65625 c 0.65623,-1.99999 1.15622,-3.96873 1.5,-5.90625 -2.59377,2.00002 -5.71877,4.17189 -9.375,6.51562 -1.84376,1.18751 -3.57814,2.21876 -5.20313,3.09375 -0.84376,0.25001 -2.10938,0.53126 -3.79687,0.84375 -0.750006,0.0625 -1.187506,0.0938 -1.312502,0.0937 -0.718753,-0.0312 -1.281253,-0.14061 -1.6875,-0.32812 l -0.796875,-0.375 -0.75,-0.5625 -0.28125,-0.375 -0.234375,-0.42188 -0.328125,-0.89062 -0.1875,-0.98438 c 0,-0.90623 0.01563,-1.45311 0.04687,-1.64062 0.21875,-1.31249 0.375,-2.17186 0.46875,-2.57813 1.874998,-8.12497 3.906246,-15.45309 6.093757,-21.98437 0.81248,-2.40621 1.64062,-4.51558 2.48437,-6.32813 0.18748,-0.37495 0.51561,-1.04683 0.98438,-2.01562 l 1.125,-1.45313 1.03125,-1.07812 0.5625,-0.42188 0.5625,-0.375 0.65625,-0.23437 0.75,-0.0937 0.75,0.1875 0.65625,0.32812 0.51562,0.51563 0.375,0.5625 0.28125,0.60937 0.23438,0.70313 0.375,1.82812 c -2.28128,7.46879 -4.9844,15.65628 -8.10938,24.5625 -0.15627,0.68752 -0.23439,1.28127 -0.23437,1.78125 l 0,0.0469 c 0.49998,-0.0937 1.21873,-0.39061 2.15625,-0.89063 6.15622,-4.56247 11.5156,-9.24997 16.07812,-14.0625 l 4.21875,-15.79687 0.46875,-0.60938 0.42188,-0.375 0.42187,-0.32812 0.46875,-0.28125 0.51562,-0.23438 0.60938,-0.14062 0.60937,-0.0469 0.65625,0.0469 0.65625,0.1875 0.60938,0.375 0.51562,0.5625 0.42188,0.65625 0.28125,0.70312 0.1875,0.79688 0.0469,0.89062 0,1.07813 -0.84375,4.78125 c -1.28129,7.25003 -4.00004,16.76565 -8.15624,28.54687 l -0.60938,0.79688"
       id="path3225"
       style="font-size:48px;font-style:normal;font-variant:normal;font-weight:bold;font-stretch:normal;text-align:center;line-height:125%;letter-spacing:0px;word-spacing:0px;writing-mode:lr-tb;text-anchor:middle;fill:#aa0000;fill-opacity:1;stroke:#000000;stroke-width:2;stroke-miterlimit:4;stroke-dasharray:none;font-family:'A.C.M.E. Explosive';-inkscape-font-specification:'A.C.M.E. Explosive Bold'" />
    <path
       d="m 157.31886,626.0849 -2.57812,2.95312 c -0.0938,0.12504 -0.2969,0.35941 -0.60938,0.70313 1.90623,3.25003 2.96873,7.3594 3.1875,12.32812 0.0625,1.31252 0.12498,2.29689 0.1875,2.95313 l -0.14062,1.73437 c -0.15628,0.78127 -0.31253,1.48439 -0.46875,2.10938 l -0.28125,0.60937 -0.32813,0.5625 -0.42187,0.51563 -0.51563,0.42187 -0.60937,0.32813 -0.65625,0.1875 -0.65625,0.0469 -0.65625,-0.0937 -0.65625,-0.14062 -0.60938,-0.28125 -1.125,-0.60938 -2.39062,-8.90625 c -0.12502,-0.46873 -0.32814,-0.99998 -0.60938,-1.59375 -1.93751,1.62502 -3.57813,3.45315 -4.92187,5.48438 -0.75001,1.15626 -2.10939,3.21876 -4.07813,6.1875 l -0.51562,0.75 -1.92188,0.84375 c -0.4375,0.12501 -1.09375,0.29688 -1.96875,0.51562 l -0.60937,0.0469 -0.65625,-0.0469 -0.65625,-0.23437 -0.65625,-0.46875 -0.375,-0.65625 -0.1875,-0.70313 0,-0.70312 0.0937,-0.60938 0.375,-1.21875 c 0.21875,-0.49998 0.82812,-1.59373 1.82812,-3.28125 3,-4.99998 6.23437,-9.4531 9.70313,-13.35937 0.0937,-0.12497 0.21874,-0.2656 0.375,-0.42188 -0.21876,-0.46872 -0.35939,-0.87497 -0.42188,-1.21875 l -4.82812,-15.5625 0.0469,-1.125 0.0469,-0.79687 0.14062,-0.75 0.1875,-0.70313 0.28125,-0.60937 0.375,-0.60938 0.46875,-0.51562 0.5625,-0.42188 0.60938,-0.28125 0.60937,-0.1875 0.65625,-0.0469 0.65625,0 1.21875,0.23437 1.6875,0.60938 0.79688,1.21875 c 0.90623,1.7188 2.01561,4.65629 3.32812,8.8125 0.18748,0.59379 0.42186,1.15629 0.70313,1.6875 l 8.95312,-10.17188 c 0.21872,-0.18745 0.65622,-0.51557 1.3125,-0.98437 l 0.9375,-0.375 0.98438,-0.14063 0.51562,0.0469 0.42188,0.0937 0.89062,0.32812 0.70313,0.51563 c 0.24996,0.2813 0.51559,0.62505 0.79687,1.03125 0.34372,0.9063 0.51559,1.73442 0.51563,2.48437 l -0.1875,0.89063 c -0.12504,0.40629 -0.31254,0.84379 -0.5625,1.3125 l -0.65625,0.75 -0.60938,0.51562 c -0.81253,0.9063 -3.15628,3.57817 -7.03125,8.01563"
       id="path3227"
       style="font-size:48px;font-style:normal;font-variant:normal;font-weight:bold;font-stretch:normal;text-align:center;line-height:125%;letter-spacing:0px;word-spacing:0px;writing-mode:lr-tb;text-anchor:middle;fill:#aa0000;fill-opacity:1;stroke:#000000;stroke-width:2;stroke-miterlimit:4;stroke-dasharray:none;font-family:'A.C.M.E. Explosive';-inkscape-font-specification:'A.C.M.E. Explosive Bold'" />
  </g>
  <g
     transform="translate(-29.27622,-569.61882)"
     id="g3229"
     style="stroke:#000000;stroke-width:2;stroke-miterlimit:4;stroke-dasharray:none">
    <path
       d="m 296.72511,626.78802 -0.46875,-0.14062 -0.46875,-0.23438 -0.42187,-0.28125 -0.32813,-0.375 -0.28125,-0.375 -0.23437,-0.46875 -0.1875,-0.46875 -0.0937,-0.46875 -0.0937,-0.89062 0.89062,-1.45313 c -3e-5,4e-5 0.28122,-0.49996 0.84375,-1.5 l -0.51562,-0.14062 -0.60938,-0.0469 -0.65625,0 -0.75,0.0937 -0.79687,0.23438 -0.79688,0.28125 -0.89062,0.42187 -0.89063,0.46875 -1.82812,1.21875 -1.82813,1.45313 -1.82812,1.73437 -1.73438,1.82813 -1.64062,2.01562 -1.45313,2.01563 -1.26562,2.0625 -0.98438,1.96875 -0.75,1.82812 -0.23437,0.84375 c -0.15626,0.56253 -0.23439,1.18752 -0.23438,1.875 0.49999,1.34377 1.49999,2.18752 3,2.53125 0.46874,0.0938 0.96874,0.14065 1.5,0.14063 1.65624,2e-5 3.54686,-0.43748 5.67188,-1.3125 2.12498,-0.87498 3.84372,-1.89061 5.15625,-3.04688 0.84372,-0.74997 1.48435,-1.46872 1.92187,-2.15625 l 0.23438,-0.375 0.65625,-0.60937 0.65625,-0.46875 0.79687,-0.28125 0.79688,-0.0469 0.75,0.14063 0.65625,0.32812 0.5625,0.46875 0.46875,0.51563 0.32812,0.5625 0.28125,0.60937 0.1875,0.70313 0.14063,0.65625 0,0.75 -0.0469,0.75 -0.1875,0.70312 -0.32812,0.84375 c -0.84378,1.03127 -1.59378,1.89065 -2.25,2.57813 -1.53128,1.53126 -3.93753,3.31251 -7.21875,5.34375 -3.78127,1.65626 -7.39064,2.42188 -10.82813,2.29687 -1.28126,-0.0312 -2.46876,-0.15624 -3.5625,-0.375 l -1.96875,-0.375 c -1.03125,-0.18749 -1.875,-0.43749 -2.53125,-0.75 l -1.40625,-0.65625 -0.60937,-0.375 -0.5625,-0.46875 -0.51563,-0.46875 -0.46875,-0.51562 -0.375,-0.60938 -0.32812,-0.60937 -0.23438,-0.60938 -0.1875,-0.65625 -0.1875,-1.35937 0,-1.45313 0.1875,-1.54687 c 0.21875,-1.78123 0.71875,-3.84373 1.5,-6.1875 l 0.375,-1.125 c 1.09375,-2.28122 2.35937,-4.49997 3.79688,-6.65625 0.68749,-0.99997 2.21874,-2.89059 4.59375,-5.67188 1.49999,-1.40621 3.31248,-2.95308 5.4375,-4.64062 l 2.01562,-1.3125 2.10938,-1.17188 2.15625,-1.03125 2.25,-0.89062 2.39062,-0.79688 2.4375,-0.60937 2.95313,-0.5625 c 1.18746,0.50005 1.96871,0.85942 2.34375,1.07812 l 1.125,0.70313 c 0.49996,0.43755 0.96871,0.85942 1.40625,1.26562 l 0.70312,0.89063 0.5625,1.03125 0.1875,0.5625 0.1875,1.125 c 0.0312,0.18754 0.0468,0.53129 0.0469,1.03125 -4e-5,1.84379 -0.62504,3.65629 -1.875,5.4375 -0.43754,0.62504 -1.10941,1.39066 -2.01563,2.29687 l -0.46875,0.46875 -1.35937,0.375 c -0.68753,0.12504 -1.18753,0.18754 -1.5,0.1875 l -0.98438,-0.0937"
       id="path3231"
       style="font-size:48px;font-style:normal;font-variant:normal;font-weight:bold;font-stretch:normal;text-align:center;line-height:125%;letter-spacing:0px;word-spacing:0px;writing-mode:lr-tb;text-anchor:middle;fill:#aa0000;fill-opacity:1;stroke:#000000;stroke-width:2;stroke-miterlimit:4;stroke-dasharray:none;font-family:'A.C.M.E. Explosive';-inkscape-font-specification:'A.C.M.E. Explosive Bold'" />
    <path
       d="m 326.02199,609.63177 c 0.59372,-0.0312 1.49997,5e-5 2.71875,0.0937 0.90622,0.0625 1.7656,0.20318 2.57812,0.42188 l 1.59375,0.42187 c 0.93747,0.37505 1.6406,0.67193 2.10938,0.89063 l 1.17187,0.75 0.5625,0.42187 0.46875,0.46875 0.46875,0.5625 0.32813,0.5625 0.1875,0.375 c 0.81246,1.2813 1.32809,2.42192 1.54687,3.42188 0.0937,0.43754 0.14059,0.93754 0.14063,1.5 -4e-5,0.31254 -0.0313,0.81254 -0.0937,1.5 -0.0938,0.31254 -0.21879,0.79691 -0.375,1.45312 -0.81254,1.87504 -1.73441,3.45316 -2.76563,4.73438 -1.71878,2.09378 -3.32815,3.9219 -4.82812,5.48437 -0.90628,0.78128 -1.81253,1.56253 -2.71875,2.34375 -1.03128,0.90628 -1.8594,1.76565 -2.48438,2.57813 l -0.98437,1.26562 0.28125,0.79688 1.17187,2.57812 2.01563,2.67188 1.45312,1.45312 2.20313,1.92188 1.07812,1.26562 0.28125,0.51563 0.23438,0.5625 0.1875,0.60937 0,0.65625 -0.14063,0.65625 -0.28125,0.60938 -0.42187,0.46875 -0.51563,0.42187 -0.51562,0.28125 -1.21875,0.375 -1.35938,0.23438 -1.26562,0.14062 c -0.56253,-0.31249 -1.1719,-0.67187 -1.82813,-1.07812 -3.68752,-2.34374 -6.89064,-5.79686 -9.60937,-10.35938 -1.28126,-0.12498 -2.17189,-0.17185 -2.67188,-0.14062 -0.75001,0.0625 -1.31251,0.29689 -1.6875,0.70312 -0.43751,0.68752 -0.79688,1.68752 -1.07812,3 -0.0313,0.12502 -0.14064,0.70314 -0.32813,1.73438 l -0.0469,0.65625 -0.23438,0.89062 -0.46875,0.75 -0.51562,0.65625 -0.60938,0.51563 -0.65625,0.46875 -0.70312,0.32812 -0.75,0.23438 -0.79688,0.1875 -0.79687,0 -0.84375,-0.23438 -0.79688,-0.46875 -0.60937,-0.84375 -0.23438,-0.9375 0.0469,-0.98437 0.14062,-0.84375 c 0.1875,-3.40624 0.51563,-6.76561 0.98438,-10.07813 1.09375,-7.87497 2.68749,-14.15621 4.78125,-18.84375 0.43749,-0.99996 1.17187,-2.48433 2.20312,-4.45312 l 1.21875,-2.01563 1.03125,-0.75 1.6875,-1.07812 1.82813,-0.84375 1.875,-0.65625 1.92187,-0.46875 c 0.96873,-0.2187 1.92186,-0.35933 2.85938,-0.42188 l 1.875,-0.0937 m -6.04688,9.42188 c -0.81251,0.34379 -1.65626,1.12504 -2.53125,2.34375 -1.06251,2.56254 -1.87501,5.20316 -2.4375,7.92187 -0.25001,1.21878 -0.45313,2.62503 -0.60937,4.21875 0.18749,0.62503 0.43749,1.00003 0.75,1.125 0.68749,0.12503 1.67186,-0.18747 2.95312,-0.9375 2.43749,-1.43747 5.09373,-3.65622 7.96875,-6.65625 1.09373,-1.12496 1.93748,-2.10934 2.53125,-2.95312 0.96873,-1.31246 1.46873,-2.46871 1.5,-3.46875 0.0312,-0.43746 -0.0781,-0.99996 -0.32812,-1.6875 -1.34378,-0.56246 -2.68753,-0.81246 -4.03125,-0.75 -1.40627,0.0625 -2.76565,0.26567 -4.07813,0.60937 l -0.5625,0.14063 -0.60937,0 c -0.0938,4e-5 -0.26564,0.0313 -0.51563,0.0937"
       id="path3233"
       style="font-size:48px;font-style:normal;font-variant:normal;font-weight:bold;font-stretch:normal;text-align:center;line-height:125%;letter-spacing:0px;word-spacing:0px;writing-mode:lr-tb;text-anchor:middle;fill:#aa0000;fill-opacity:1;stroke:#000000;stroke-width:2;stroke-miterlimit:4;stroke-dasharray:none;font-family:'A.C.M.E. Explosive';-inkscape-font-specification:'A.C.M.E. Explosive Bold'" />
    <path
       d="m 353.49074,630.5849 -0.375,0.84375 0.32812,0.0937 5.01563,-0.23438 2.90625,-1.40625 0.14062,-0.23437 -0.0937,-5.85938 -0.75,-1.5 -0.28125,0.14063 -3.23437,2.76562 -3.65625,5.39063 m 15.14062,-13.5 0.42188,2.4375 c -4e-5,0.18754 0.0625,0.85941 0.1875,2.01562 0.24996,2.53129 0.35934,5.18754 0.32812,7.96875 -3e-5,0.68753 -0.0313,1.70316 -0.0937,3.04688 -3e-5,0.56253 -0.0469,1.59378 -0.14062,3.09375 l -0.23438,3 c -0.28128,3.59377 -0.6719,6.68751 -1.17187,9.28125 l -0.23438,1.21875 -0.23437,0.65625 -0.46875,0.5625 -0.51563,0.42187 -0.51562,0.32813 -0.60938,0.23437 -0.5625,0.14063 -0.60937,0.0937 -0.65625,0.0469 -0.60938,0 -0.65625,-0.14062 -0.60937,-0.1875 -0.65625,-0.375 -0.51563,-0.51563 -0.42187,-0.70312 -0.1875,-0.79688 c -3e-5,-0.99998 0.1406,-2.09373 0.42187,-3.28125 l 0.75,-3.14062 0.0937,-0.5625 c 0.0312,-1.06248 -0.0938,-1.98436 -0.375,-2.76563 -3.46877,3e-5 -8.31251,1.25002 -14.53125,3.75 -1.81251,3.00002 -3.59375,6.00002 -5.34375,9 l -0.60937,0.46875 -0.60938,0.23438 -0.5625,0.14062 -0.60937,0.0469 -0.60938,-0.0469 -0.60937,-0.0937 -0.60938,-0.1875 -0.60937,-0.28125 -0.51563,-0.375 -0.51562,-0.5625 -0.42188,-0.65625 -0.23437,-0.79687 -0.0469,-0.84375 0.14063,-0.84375 0.32812,-0.84375 c 0.25,-0.65624 0.98438,-2.15624 2.20313,-4.5 2.84374,-5.46873 6.74999,-11.5781 11.71875,-18.32813 1.68748,-2.31246 3.51561,-4.62496 5.48437,-6.9375 0.24998,-0.31245 0.73436,-0.85933 1.45313,-1.64062 l 1.82812,-1.875 c 0.59373,-0.5937 1.40623,-1.31245 2.4375,-2.15625 l 0.79688,-0.51563 0.75,-0.46875 0.75,-0.32812 0.79687,-0.1875 0.79688,0 0.9375,0.23437 0.79687,0.42188 0.70313,0.60937 0.5625,0.70313 0.46875,0.79687 0.42187,0.89063 0.375,0.9375 0.28125,1.03125 0.28125,1.125"
       id="path3235"
       style="font-size:48px;font-style:normal;font-variant:normal;font-weight:bold;font-stretch:normal;text-align:center;line-height:125%;letter-spacing:0px;word-spacing:0px;writing-mode:lr-tb;text-anchor:middle;fill:#aa0000;fill-opacity:1;stroke:#000000;stroke-width:2;stroke-miterlimit:4;stroke-dasharray:none;font-family:'A.C.M.E. Explosive';-inkscape-font-specification:'A.C.M.E. Explosive Bold'" />
    <path
       d="m 397.22511,609.16302 c 0.56248,6e-5 1.54685,-0.0312 2.95313,-0.0937 l 0.89062,0.0937 0.79688,0.32813 0.70312,0.46875 0.46875,0.65625 0.28125,0.75 0.0937,0.79687 -0.0469,0.75 -0.23438,0.70313 -0.32812,0.65625 -0.42188,0.65625 -0.51562,0.5625 -0.60938,0.51562 -0.70312,0.46875 -0.79688,0.375 -2.48437,0.79688 -6.32813,1.35937 -6.32812,28.3125 -1.07813,2.34375 -0.46875,0.84375 -0.98437,1.26563 -0.5625,0.46875 -0.65625,0.32812 -0.75,0.0937 -0.70313,-0.0937 -0.5625,-0.28125 -0.75,-0.60937 c -0.0937,-0.12499 -0.3125,-0.34374 -0.65625,-0.65625 l -0.84375,-0.75 c 0.625,-3.15624 1.51562,-8.18748 2.67188,-15.09375 1.09374,-6.53122 1.99999,-11.54684 2.71875,-15.04688 -1.18751,4e-5 -2.35939,-0.0156 -3.51563,-0.0469 l -3.51562,-0.0937 c -0.62501,-0.0312 -1.26563,-0.14059 -1.92188,-0.32813 l -0.60937,-0.1875 -0.5625,-0.23437 -0.51563,-0.375 -0.51562,-0.51563 -0.23438,-0.79687 0,-0.84375 0.28125,-0.65625 0.375,-0.51563 0.46875,-0.42187 1.07813,-0.75 c 0.90625,-0.4687 1.68749,-0.8437 2.34375,-1.125 0.46874,-0.1562 1.28124,-0.39058 2.4375,-0.70313 7.18748,-1.93745 13.73435,-3.06245 19.64062,-3.375"
       id="path3237"
       style="font-size:48px;font-style:normal;font-variant:normal;font-weight:bold;font-stretch:normal;text-align:center;line-height:125%;letter-spacing:0px;word-spacing:0px;writing-mode:lr-tb;text-anchor:middle;fill:#aa0000;fill-opacity:1;stroke:#000000;stroke-width:2;stroke-miterlimit:4;stroke-dasharray:none;font-family:'A.C.M.E. Explosive';-inkscape-font-specification:'A.C.M.E. Explosive Bold'" />
    <path
       d="m 428.72511,609.9599 1.21875,0.51562 1.17188,0.89063 0.46875,0.42187 0.42187,0.51563 0.28125,0.51562 0.23438,0.60938 0.0469,0.70312 -0.0937,0.65625 -0.23437,0.60938 -0.375,0.51562 -0.42188,0.46875 -0.46875,0.375 -1.17187,0.70313 -1.82813,0.79687 c -1.31253,-0.37495 -2.40627,-0.56245 -3.28125,-0.5625 -1.15627,5e-5 -2.90627,0.2813 -5.25,0.84375 -0.21877,0.0313 -0.75002,0.1563 -1.59375,0.375 -0.21877,0.0625 -0.51564,0.1563 -0.89062,0.28125 -1.62502,0.56254 -2.92189,1.45317 -3.89063,2.67188 -0.93751,2.71878 -1.56251,5.56253 -1.875,8.53125 0.56249,0.15628 1.12499,0.20315 1.6875,0.14062 1.34374,-0.15622 2.90623,-0.51559 4.6875,-1.07812 0.78123,-0.24997 1.78123,-0.51559 3,-0.79688 l 1.07813,-0.14062 c 0.84372,3e-5 1.37497,0.0157 1.59375,0.0469 0.68747,0.0938 1.3281,0.28129 1.92187,0.5625 l 0.70313,0.14063 0.79687,0.32812 0.75,0.375 0.60938,0.5625 0.46875,0.65625 0.23437,0.75 0.0469,0.79688 -0.1875,0.70312 -0.28125,0.65625 -0.375,0.5625 -0.46875,0.51563 -0.5625,0.46875 -0.5625,0.42187 -0.65625,0.375 -0.70313,0.32813 -0.89062,0.32812 c -2.09378,0.0625 -3.96877,0.20315 -5.625,0.42188 -0.50002,0.0625 -1.39065,0.2344 -2.67188,0.51562 -1.78126,0.37503 -3.79689,0.95315 -6.04687,1.73438 -0.21876,0.81252 -0.59376,1.84377 -1.125,3.09375 0.96874,2e-5 2.01561,-0.0469 3.14062,-0.14063 3.31249,-0.28123 6.54686,-0.84373 9.70313,-1.6875 l 1.21875,-0.32812 0.9375,0.60937 0.42187,0.42188 0.375,0.51562 0.28125,0.51563 0.14063,0.5625 0.0937,0.5625 0.0469,0.5625 -0.0469,0.60937 -0.14063,0.60938 -0.1875,0.5625 -0.28125,0.60937 -0.375,0.51563 -0.42187,0.51562 -0.51563,0.51563 -0.60937,0.42187 -0.89063,0.5625 -2.01562,0.0469 c -1.28127,0.0313 -3.71877,0.43751 -7.3125,1.21875 l -2.15625,0.46875 c -1.25001,0.31251 -2.51564,0.60938 -3.79688,0.89062 -1.5,0.34376 -2.78125,0.53126 -3.84375,0.5625 l -1.26562,0.0469 -0.60938,-0.0469 -0.5625,-0.0937 -0.60937,-0.1875 -0.5625,-0.32812 -0.46875,-0.375 -0.42188,-0.5625 -0.375,-0.9375 9.65625,-34.3125 c 1.24999,-0.74996 2.48437,-1.49995 3.70313,-2.25 1.46873,-0.87495 2.76561,-1.54683 3.89062,-2.01563 l 2.20313,-0.9375 c 1.46873,-0.4687 2.6406,-0.79682 3.51562,-0.98437 0.37498,-0.0937 1.28123,-0.2187 2.71875,-0.375 l 1.92188,0 c 1.53122,0.25005 2.73434,0.50005 3.60937,0.75"
       id="path3239"
       style="font-size:48px;font-style:normal;font-variant:normal;font-weight:bold;font-stretch:normal;text-align:center;line-height:125%;letter-spacing:0px;word-spacing:0px;writing-mode:lr-tb;text-anchor:middle;fill:#aa0000;fill-opacity:1;stroke:#000000;stroke-width:2;stroke-miterlimit:4;stroke-dasharray:none;font-family:'A.C.M.E. Explosive';-inkscape-font-specification:'A.C.M.E. Explosive Bold'" />
  </g>
  <path
     d="m 296.13097,98.88496 0,0.15625 -0.34375,1 -0.46875,0.96875 -0.59375,0.9375 -0.75,0.8125 -0.875,0.75 -1,0.65625 -1.15625,0.53125 -3.5625,1.15625 -9.125,1.96875 -9.09375,40.71875 -1.5625,3.375 -0.65625,1.21875 -1.4375,1.8125 -0.78125,0.6875 -0.96875,0.46875 -1.0625,0.125 -1.03125,-0.125 -0.78125,-0.40625 -1.09375,-0.875 c -0.13488,-0.17981 -0.443,-0.51918 -0.9375,-0.96875 l -0.375,-0.3125 c -0.12853,0.67458 -0.29041,1.69623 -0.40625,2.28125 l 1.21875,1.0625 c 0.4945,0.44957 0.80262,0.75769 0.9375,0.9375 l 1.0625,0.875 0.8125,0.40625 1.03125,0.15625 1.0625,-0.15625 0.9375,-0.46875 0.8125,-0.65625 1.4375,-1.84375 0.65625,-1.1875 1.5625,-3.375 9.09375,-40.75 9.09375,-1.9375 3.59375,-1.15625 1.125,-0.53125 1.03125,-0.6875 0.875,-0.75 0.75,-0.78125 0.59375,-0.96875 0.46875,-0.9375 0.34375,-1 0.0625,-1.09375 -0.125,-1.125 -0.375,-0.96875 z m 47.46875,1.0625 0,1.1875 -1.21875,6.875 c -1.84323,10.42971 -5.73972,24.11433 -11.71875,41.0625 l -0.875,1.15625 -0.75,0.8125 -0.75,0.75 -0.71875,0.59375 -0.8125,0.53125 -0.75,0.40625 -0.8125,0.34375 -0.8125,0.1875 -0.8125,0.0937 -0.8125,-0.0937 -0.875,-0.1875 -0.71875,-0.46875 -0.6875,-0.6875 -0.0312,-0.0937 c -0.0472,0.14732 -0.10783,0.28994 -0.15625,0.4375 l 0,0.9375 0.21875,0.875 0.40625,0.875 0.65625,0.6875 0.75,0.46875 0.875,0.1875 0.8125,0.0625 0.8125,-0.0625 0.8125,-0.1875 0.8125,-0.34375 0.75,-0.40625 0.78125,-0.53125 0.75,-0.625 0.75,-0.75 0.75,-0.78125 0.875,-1.15625 c 5.97903,-16.94817 9.87552,-30.63279 11.71875,-41.0625 l 1.21875,-6.875 0,-1.5625 -0.0625,-1.28125 -0.28125,-1.15625 -0.0937,-0.21875 z m -91,0.0625 c -0.0378,0.2641 -0.0801,0.60861 -0.15625,0.96875 0.16272,-0.0833 0.31189,-0.13983 0.46875,-0.21875 l -0.0312,-0.125 -0.28125,-0.625 z m -122.75,0.21875 0,0.625 -0.28125,1.84375 c -0.98904,3.37172 -1.68917,6.39648 -2.09375,9.09375 l -0.125,0.875 c -0.85417,5.48461 -1.40024,10.30164 -1.625,14.4375 l -0.125,2.34375 c -0.045,0.76428 -0.0625,1.56584 -0.0625,2.375 l 0.5625,-0.71875 0.0625,-1 c 0.22476,-4.13586 0.77083,-8.92164 1.625,-14.40625 l 0.125,-0.875 c 0.40458,-2.69727 1.10471,-5.75328 2.09375,-9.125 l 0.28125,-1.8125 0,-1.6875 -0.28125,-1.5625 -0.15625,-0.40625 z m 306.09375,1.375 -0.0312,0.125 -0.3125,0.875 -0.5625,0.75 -0.59375,0.6875 -0.6875,0.53125 -1.6875,1 -2.625,1.15625 c -1.88817,-0.53941 -3.46004,-0.81244 -4.71875,-0.8125 -1.66339,6e-5 -4.19088,0.40961 -7.5625,1.21875 -0.31472,0.045 -1.06748,0.21662 -2.28125,0.53125 -0.31472,0.09 -0.74181,0.22649 -1.28125,0.40625 -2.33771,0.80926 -4.20015,2.09054 -5.59375,3.84375 -1.34868,3.91117 -2.23797,8.01053 -2.6875,12.28125 0.27302,0.0759 0.53947,0.11623 0.8125,0.15625 0.5052,-3.24454 1.26804,-6.37734 2.3125,-9.40625 1.3936,-1.75321 3.25604,-3.03449 5.59375,-3.84375 0.53944,-0.17976 0.96653,-0.31628 1.28125,-0.40625 1.21377,-0.31463 1.96653,-0.48624 2.28125,-0.53125 3.37162,-0.80914 5.89911,-1.21869 7.5625,-1.21875 1.25871,6e-5 2.83058,0.27309 4.71875,0.8125 l 2.625,-1.15625 1.6875,-1 0.6875,-0.5625 0.59375,-0.65625 0.53125,-0.75 0.34375,-0.875 0.125,-0.9375 -0.0625,-1 -0.3125,-0.90625 -0.15625,-0.3125 z m -239.125,0.0625 0,0.0625 -0.34375,0.875 -0.53125,0.75 -0.625,0.6875 -0.65625,0.53125 -1.6875,1 -2.65625,1.15625 c -1.88817,-0.53941 -3.46004,-0.81244 -4.71875,-0.8125 -1.66339,6e-5 -4.15963,0.40961 -7.53125,1.21875 -0.31472,0.045 -1.09873,0.21662 -2.3125,0.53125 -0.31472,0.09 -0.74181,0.22649 -1.28125,0.40625 -2.33771,0.80926 -4.20015,2.09054 -5.59375,3.84375 -1.34868,3.91117 -2.23797,8.01053 -2.6875,12.28125 0.27302,0.0759 0.53947,0.11623 0.8125,0.15625 0.5052,-3.24454 1.26804,-6.37734 2.3125,-9.40625 1.3936,-1.75321 3.25604,-3.03449 5.59375,-3.84375 0.53944,-0.17976 0.96653,-0.31628 1.28125,-0.40625 1.21377,-0.31463 1.99778,-0.48624 2.3125,-0.53125 3.37162,-0.80914 5.86786,-1.21869 7.53125,-1.21875 1.25871,6e-5 2.83058,0.27309 4.71875,0.8125 l 2.625,-1.15625 1.6875,-1 0.6875,-0.5625 0.59375,-0.65625 0.5625,-0.75 0.3125,-0.875 0.15625,-0.9375 -0.0625,-1 -0.34375,-0.90625 -0.15625,-0.25 z m 116.46875,1.40625 c -3.25798,10.64501 -7.11833,22.27162 -11.5625,34.9375 -0.22479,0.98905 -0.34376,1.84324 -0.34375,2.5625 l 0,0.0937 c 0.28122,-0.0527 0.65381,-0.17043 1.03125,-0.3125 4.39103,-12.53955 8.18478,-24.10927 11.40625,-34.65625 l -0.53125,-2.625 z m -158.4375,0.0625 0,1.03125 -0.53125,4.0625 c -0.40464,0.85421 -1.13986,2.37728 -2.21875,4.625 -2.06799,4.13595 -4.44142,8.25285 -7.09375,12.34375 -0.26977,0.40464 -0.71441,1.10477 -1.34375,2.09375 -2.51754,3.77629 -5.57739,8.02971 -9.21875,12.75 -1.75329,2.33771 -5.01599,6.4546 -9.78125,12.34375 l -1.21875,1.40625 -1.21875,1.21875 -1.28125,0.8125 -1.28125,0.46875 c -0.67434,0.13488 -1.29059,0.21876 -1.875,0.21875 -0.58443,-0.0899 -1.43862,-0.24396 -2.5625,-0.46875 l -1.84375,-0.375 c 0.10286,1.18705 0.20964,2.22301 0.3125,2.96875 l 1.9375,0.40625 c 1.12388,0.22479 1.97807,0.37885 2.5625,0.46875 0.58441,1e-5 1.23191,-0.0526 1.90625,-0.1875 l 1.28125,-0.46875 1.28125,-0.8125 1.21875,-1.21875 1.1875,-1.40625 c 4.76526,-5.88915 8.02796,-10.00604 9.78125,-12.34375 3.64136,-4.72029 6.73246,-8.97371 9.25,-12.75 0.62934,-0.98898 1.07398,-1.68911 1.34375,-2.09375 2.65233,-4.0909 5.02576,-8.2078 7.09375,-12.34375 1.07889,-2.24772 1.81411,-3.80204 2.21875,-4.65625 l 0.53125,-4.03125 0,-2.09375 -0.125,-0.9375 -0.28125,-0.96875 -0.0312,-0.0625 z m 216.6875,3.53125 c -2.02303,0.09 -3.9869,0.38055 -5.875,0.875 l -0.8125,0.1875 -0.875,0 c -0.13489,6e-5 -0.39038,0.0664 -0.75,0.15625 -1.16886,0.49457 -2.36627,1.62179 -3.625,3.375 -1.5285,3.6864 -2.72207,7.46392 -3.53125,11.375 -0.35966,1.7533 -0.65024,3.80106 -0.875,6.09375 0.17191,0.57309 0.41127,0.96914 0.65625,1.25 0.19037,-1.56277 0.39435,-3.03575 0.65625,-4.3125 0.80918,-3.91108 1.9715,-7.71985 3.5,-11.40625 1.25873,-1.75321 2.48739,-2.88043 3.65625,-3.375 0.35962,-0.0899 0.61511,-0.12494 0.75,-0.125 l 0.875,0 0.8125,-0.1875 c 1.8881,-0.49445 3.82072,-0.78503 5.84375,-0.875 1.93305,-0.0899 3.87938,0.25336 5.8125,1.0625 0.0293,-0.19713 0.0253,-0.4044 0.0312,-0.59375 0.0449,-0.62932 -0.10914,-1.44842 -0.46875,-2.4375 -1.93312,-0.80914 -3.8482,-1.15235 -5.78125,-1.0625 z m -281.374998,1.34375 c -0.78672,-0.003 -1.56828,0.0176 -2.34375,0.0625 -3.01205,0.17988 -6.00172,0.84492 -8.96875,1.96875 -1.97806,0.7643 -3.19301,1.80764 -3.6875,3.15625 -0.17984,0.40465 -0.48797,1.18867 -0.9375,2.3125 -1.34868,3.32675 -2.61243,7.51383 -3.78125,12.59375 -0.85417,3.68638 -1.48412,7.41127 -1.84375,11.1875 0.26929,-0.0728 0.54504,-0.14178 0.8125,-0.21875 0.35733,-2.66689 0.86133,-5.31604 1.46875,-7.9375 1.16882,-5.07992 2.40132,-9.29825 3.75,-12.625 0.44953,-1.12383 0.78891,-1.8766 0.96875,-2.28125 0.49449,-1.34861 1.70944,-2.4232 3.6875,-3.1875 2.96703,-1.12383 5.9567,-1.75762 8.96875,-1.9375 3.10189,-0.17976 6.31196,0.009 9.59375,0.59375 l 0.3125,0.46875 0.625,1.15625 0.21875,0.6875 0.0312,-0.34375 -0.0625,-1.125 -0.28125,-1.09375 -0.34375,-1.15625 -0.59375,-1.125 -0.34375,-0.46875 c -2.46134,-0.43827 -4.88985,-0.67905 -7.25,-0.6875 z m 160.468748,0 -10.75,41 c -0.40464,1.1239 -0.90192,2.21604 -1.53125,3.25 l -0.53125,0.875 -0.6875,0.71875 -0.8125,0.6875 -0.875,0.53125 -1,0.34375 -1.09375,0.125 -1,-0.125 -1.03125,-0.40625 -0.875,-0.53125 -0.71875,-0.625 -0.75,-0.78125 c -0.85419,-0.94405 -2.40851,-3.16341 -4.65625,-6.625 -2.2478,-3.46155 -3.81967,-5.80372 -4.71875,-7.0625 -1.79824,-2.60739 -3.50663,-4.86184 -5.125,-6.75 -1.07895,-1.25872 -2.37778,-2.60634 -3.90625,-4 -1.03399,1.97808 -1.76921,5.08672 -2.21875,9.3125 -0.58443,5.43963 -1.3509,9.09435 -2.25,10.9375 l -0.9375,1.9375 -0.65625,1.21875 -0.6875,1.03125 -0.8125,0.9375 -0.875,0.75 -1,0.53125 -1.21875,0.34375 -1.28125,-0.0937 -1.21875,-0.53125 -0.9375,-0.8125 -0.6875,-0.9375 -0.46875,-1.0625 -0.25,-0.875 0.15625,1.375 0.1875,1.28125 0.34375,1.21875 0.46875,1.09375 0.6875,0.9375 0.9375,0.8125 1.21875,0.53125 1.28125,0.0625 1.1875,-0.34375 1.03125,-0.53125 0.875,-0.75 0.8125,-0.9375 0.65625,-1 0.6875,-1.21875 0.9375,-1.96875 c 0.8991,-1.84315 1.63432,-5.46662 2.21875,-10.90625 0.44954,-4.22578 1.21601,-7.33442 2.25,-9.3125 1.52847,1.39366 2.8273,2.71003 3.90625,3.96875 1.61837,1.88816 3.32676,4.14261 5.125,6.75 0.89908,1.25878 2.47095,3.6322 4.71875,7.09375 2.24774,3.46159 3.80206,5.6497 4.65625,6.59375 l 0.71875,0.8125 0.75,0.625 0.875,0.53125 1.03125,0.40625 1,0.125 1.0625,-0.125 1.03125,-0.34375 0.875,-0.53125 0.8125,-0.6875 0.65625,-0.75 0.5625,-0.875 c 0.62933,-1.03396 1.12661,-2.09485 1.53125,-3.21875 l 10.75,-41 0.1875,0.125 0.8125,0.34375 0.875,0.28125 c 0.94406,0.26979 1.85089,0.42385 2.75,0.46875 l 5.0625,0.125 c 1.32456,0.0358 2.67816,0.0552 4.03125,0.0625 0.20486,-1.05442 0.40656,-2.11974 0.59375,-3.03125 -1.70832,6e-5 -3.39916,-0.0175 -5.0625,-0.0625 l -5.0625,-0.125 c -0.89911,-0.0449 -1.80594,-0.19896 -2.75,-0.46875 l -0.875,-0.28125 -0.8125,-0.34375 -0.1875,-0.125 z m 141.25,0.59375 c -0.003,0.45175 -0.0377,1.13336 -0.125,2.09375 -0.13492,0.44961 -0.30652,1.14974 -0.53125,2.09375 -1.16889,2.69738 -2.51652,4.96937 -4,6.8125 -2.4726,3.01206 -4.77968,5.65852 -6.9375,7.90625 l -3.90625,3.375 c -1.48357,1.30374 -2.66342,2.51869 -3.5625,3.6875 l -1.4375,1.84375 0.40625,1.125 0.5625,1.21875 0.875,-1.15625 c 0.89908,-1.16881 2.11018,-2.41501 3.59375,-3.71875 l 3.90625,-3.375 c 2.15782,-2.24773 4.4649,-4.86294 6.9375,-7.875 1.48348,-1.84313 2.83111,-4.11512 4,-6.8125 0.22473,-0.94401 0.39633,-1.64414 0.53125,-2.09375 0.0899,-0.98896 0.12495,-1.70664 0.125,-2.15625 -5e-5,-0.80914 -0.0527,-1.52681 -0.1875,-2.15625 -0.0569,-0.25989 -0.16526,-0.5394 -0.25,-0.8125 z m -341.656268,1 c 0.0417,0.49433 0.0733,0.78804 0.1875,1.84375 0.35959,3.64144 0.51365,7.46776 0.46875,11.46875 -5e-5,0.98906 -0.0351,2.44196 -0.125,4.375 -5e-5,0.80924 -0.0839,2.31092 -0.21875,4.46875 l -0.34375,4.3125 c -0.40465,5.1699 -0.96826,9.61247 -1.6875,13.34375 l -0.3125,1.75 -0.34375,0.9375 -0.6875,0.8125 -0.71875,0.625 -0.75,0.46875 -0.875,0.34375 -0.8125,0.1875 -0.875,0.125 -0.9375,0.0937 -0.875,0 -0.96875,-0.21875 -0.875,-0.28125 -0.9375,-0.53125 -0.75,-0.75 -0.375,-0.625 c -0.0461,0.51631 -0.0625,1.01442 -0.0625,1.5 l 0.28125,1.15625 0.59375,1 0.75,0.75 0.9375,0.53125 0.875,0.28125 0.9375,0.1875 0.875,0 0.96875,-0.0625 0.875,-0.125 0.8125,-0.21875 0.875,-0.34375 0.71875,-0.46875 0.75,-0.59375 0.6875,-0.8125 0.3125,-0.9375 0.34375,-1.75 c 0.71924,-3.73128 1.28285,-8.2051 1.6875,-13.375 l 0.34375,-4.3125 c 0.13482,-2.15783 0.18745,-3.62826 0.1875,-4.4375 0.0899,-1.93304 0.1562,-3.38594 0.15625,-4.375 0.0449,-4.00099 -0.10916,-7.82731 -0.46875,-11.46875 -0.17987,-1.6633 -0.2813,-2.63646 -0.28125,-2.90625 l -0.34375,-1.96875 z m 62.687518,2.21875 c 0.0815,0.7808 0.16308,1.60614 0.21875,2.46875 l 0.0625,1 -0.40625,1.75 -0.6875,1.6875 -0.875,1.6875 -1,1.8125 -1.28125,1.78125 -1.34375,1.875 -1.625,1.875 -1.6875,1.90625 -3.84375,3.84375 -4.249998,3.78125 -4.53125,3.6875 -4.71875,3.53125 -4.84375,3.15625 -2.4375,1.46875 -2.40625,1.375 -2.375,1.1875 -2.34375,1.09375 -2.3125,0.9375 -2.21875,0.75 -2.21875,0.59375 -2.09377,0.40625 -2.03125,0.15625 -1.9375,-0.0937 -1.84375,-0.3125 -1.75,-0.6875 -1.53125,-1 -1.09375,-1.15625 c -0.12956,0.71342 -0.24979,1.43698 -0.375,2.15625 l 1.875,2 1.5625,1.03125 1.75,0.65625 1.8125,0.34375 1.96875,0.0625 2.03125,-0.125 2.09377,-0.40625 2.21875,-0.59375 2.21875,-0.75 2.28125,-0.9375 2.375,-1.09375 2.375,-1.21875 2.40625,-1.34375 2.4375,-1.46875 4.84375,-3.1875 4.71875,-3.5 4.53125,-3.71875 4.249998,-3.78125 3.84375,-3.84375 1.6875,-1.875 1.625,-1.875 1.34375,-1.90625 1.28125,-1.75 1,-1.8125 0.875,-1.6875 0.6875,-1.6875 0.40625,-1.71875 c 10e-4,-0.0102 -0.001,-0.0211 0,-0.0312 l 0,-0.0312 -0.0937,-1 c -0.13329,-2.06528 -0.34367,-3.8724 -0.625,-5.46875 z m -74.843768,0.71875 -0.40625,0.1875 -4.65625,3.96875 -5.25,7.78125 -0.53125,1.1875 0.46875,0.15625 1.6875,-0.0937 4.0625,-6 4.65625,-3.96875 0.40625,-0.21875 0.6875,1.40625 -0.0312,-2.25 -1.09375,-2.15625 z m 153.250018,15.5625 -0.125,0.46875 -0.375,0.9375 -0.5625,0.8125 -0.65625,0.75 -0.8125,0.6875 -0.8125,0.59375 -0.9375,0.53125 -1.03125,0.46875 -1.28125,0.5 c -3.01205,0.0899 -5.71114,0.27909 -8.09375,0.59375 -0.71932,0.0899 -2.0006,0.34543 -3.84375,0.75 -2.56248,0.5395 -5.45073,1.37614 -8.6875,2.5 -0.31471,1.16887 -0.86077,2.63931 -1.625,4.4375 0.50754,1e-5 1.05639,-0.0134 1.59375,-0.0312 0.16654,-0.48959 0.35794,-0.99469 0.46875,-1.40625 3.23677,-1.12386 6.12502,-1.9605 8.6875,-2.5 1.84315,-0.40457 3.12443,-0.62881 3.84375,-0.71875 2.38261,-0.31466 5.0817,-0.53506 8.09375,-0.625 l 1.28125,-0.46875 1.03125,-0.46875 0.9375,-0.53125 0.8125,-0.625 0.8125,-0.65625 0.65625,-0.75 0.53125,-0.8125 0.40625,-0.9375 0.28125,-1 -0.0625,-1.15625 -0.34375,-1.09375 -0.1875,-0.25 z m 239.125,0 -0.125,0.46875 -0.40625,0.9375 -0.53125,0.8125 -0.6875,0.75 -0.78125,0.6875 -0.8125,0.59375 -0.96875,0.53125 -1,0.46875 -1.28125,0.5 c -3.01205,0.0899 -5.71114,0.27909 -8.09375,0.59375 -0.71932,0.0899 -2.0006,0.34543 -3.84375,0.75 -2.56248,0.5395 -5.45073,1.37614 -8.6875,2.5 -0.31471,1.16887 -0.86077,2.63931 -1.625,4.4375 0.50754,1e-5 1.05639,-0.0134 1.59375,-0.0312 0.16654,-0.48959 0.35794,-0.99469 0.46875,-1.40625 3.23677,-1.12386 6.12502,-1.9605 8.6875,-2.5 1.84315,-0.40457 3.12443,-0.62881 3.84375,-0.71875 2.38261,-0.31466 5.0817,-0.53506 8.09375,-0.625 l 1.28125,-0.46875 1,-0.46875 0.9375,-0.53125 0.8125,-0.625 0.8125,-0.65625 0.6875,-0.75 0.53125,-0.8125 0.40625,-0.9375 0.28125,-1 -0.0625,-1.15625 -0.34375,-1.09375 -0.1875,-0.25 z m -392.250018,8.71875 c -4.99009,3e-5 -11.96014,1.77859 -20.90625,5.375 -2.60743,4.31574 -5.170006,8.62179 -7.6875019,12.9375 l -0.875,0.6875 -0.875,0.34375 -0.8125,0.1875 -0.875,0.0625 -0.875,-0.0625 -0.875,-0.125 -0.875,-0.28125 -0.875,-0.40625 -0.75,-0.53125 -0.71875,-0.8125 -0.50000004,-0.75 -0.09375,0.46875 0.0625,1.21875 0.34375004,1.15625 0.59375,0.9375 0.75,0.8125 0.75,0.53125 0.875,0.40625 0.875,0.28125 0.875,0.125 0.875,0.0625 0.875,-0.0625 0.8125,-0.21875 0.875,-0.3125 0.8749999,-0.6875 c 2.517496,-4.31571 5.080072,-8.62176 7.687502,-12.9375 8.94611,-3.59641 15.91616,-5.40622 20.90625,-5.40625 0.0429,0.11928 0.0559,0.25116 0.0937,0.375 -0.0125,-1.28029 -0.18011,-2.39948 -0.53125,-3.375 z m 283.843768,4.5 c -3.73133,2.87717 -8.24024,6.00336 -13.5,9.375 -2.65239,1.70832 -5.13108,3.17876 -7.46875,4.4375 -1.21381,0.35965 -3.04117,0.76921 -5.46875,1.21875 -1.07894,0.0899 -1.72643,0.15626 -1.90625,0.15625 -1.03398,-0.0449 -1.82183,-0.19901 -2.40625,-0.46875 l -1.15625,-0.5625 -1.0625,-0.8125 -0.40625,-0.53125 -0.34375,-0.59375 -0.3125,-0.84375 c -0.006,0.34082 0,0.67388 0,1.15625 l 0.28125,1.40625 0.46875,1.28125 0.3125,0.625 0.40625,0.53125 1.09375,0.8125 1.15625,0.53125 c 0.58442,0.26974 1.37227,0.4238 2.40625,0.46875 0.17982,1e-5 0.82731,-0.0351 1.90625,-0.125 2.42758,-0.44954 4.22369,-0.8591 5.4375,-1.21875 2.33767,-1.25874 4.84761,-2.72918 7.5,-4.4375 4.69365,-3.00875 8.74222,-5.82251 12.21875,-8.4375 0.33218,-1.33128 0.61107,-2.65737 0.84375,-3.96875 z m 33.65625,1.75 c -1.07895,0.0899 -1.89805,0.44685 -2.4375,1.03125 -0.62939,0.98904 -1.15791,2.42439 -1.5625,4.3125 -0.045,0.17984 -0.19903,1.01649 -0.46875,2.5 l -0.0625,0.9375 -0.34375,1.28125 -0.65625,1.0625 -0.75,0.9375 -0.875,0.75 -0.9375,0.6875 -1.03125,0.46875 -1.0625,0.34375 -1.15625,0.25 -1.15625,0 -1.21875,-0.3125 -1.125,-0.6875 -0.71875,-0.96875 -0.0625,1.4375 0.34375,1.34375 0.875,1.21875 1.125,0.65625 1.21875,0.34375 1.15625,0 1.125,-0.28125 1.09375,-0.3125 1,-0.5 0.96875,-0.65625 0.875,-0.75 0.71875,-0.9375 0.6875,-1.09375 0.34375,-1.28125 0.0625,-0.9375 c 0.26972,-1.48351 0.42378,-2.32016 0.46875,-2.5 0.40459,-1.88811 0.93311,-3.32346 1.5625,-4.3125 0.53945,-0.5844 1.3273,-0.91007 2.40625,-1 0.71927,-0.0449 2.00056,0.008 3.84375,0.1875 3.9111,6.56351 8.53898,11.5346 13.84375,14.90625 0.94403,0.58443 1.81577,1.11295 2.625,1.5625 l 1.8125,-0.21875 1.96875,-0.3125 1.75,-0.5625 0.75,-0.40625 0.71875,-0.59375 0.625,-0.6875 0.40625,-0.875 0.1875,-0.9375 0,-0.9375 -0.28125,-0.875 -0.25,-0.6875 -0.0937,0.4375 -0.40625,0.875 -0.625,0.65625 -0.71875,0.625 -0.75,0.40625 -1.75,0.53125 -1.96875,0.34375 -1.8125,0.1875 c -0.80923,-0.44955 -1.68097,-0.94682 -2.625,-1.53125 -5.30477,-3.37165 -9.9014,-8.34274 -13.8125,-14.90625 -1.84319,-0.1798 -3.12448,-0.26368 -3.84375,-0.21875 z m -169.71875,1.8125 -0.0312,0.40625 -0.1875,0.875 -0.28125,0.8125 -0.40625,0.875 -0.53125,0.75 -0.625,0.75 -0.71875,0.75 -0.875,0.59375 -1.28125,0.8125 -2.90625,0.0625 c -1.8432,0.045 -5.3614,0.62613 -10.53125,1.75 l -3.09375,0.6875 c -1.79823,0.44957 -3.62559,0.87666 -5.46875,1.28125 -2.15787,0.49452 -4.00277,0.76755 -5.53125,0.8125 l -1.8125,0.0625 -0.875,-0.0625 -0.8125,-0.15625 -0.875,-0.25 -0.8125,-0.46875 -0.65625,-0.5625 -0.34375,-0.4375 -0.375,1.3125 0.53125,1.34375 0.59375,0.8125 0.6875,0.53125 0.8125,0.46875 0.875,0.28125 0.8125,0.125 0.875,0.0625 1.8125,-0.0625 c 1.52848,-0.0449 3.37338,-0.31798 5.53125,-0.8125 1.84316,-0.40459 3.67052,-0.83168 5.46875,-1.28125 l 3.09375,-0.65625 c 5.16985,-1.12387 8.68805,-1.70503 10.53125,-1.75 l 2.875,-0.0625 1.28125,-0.8125 0.90625,-0.625 0.71875,-0.71875 0.625,-0.75 0.53125,-0.75 0.40625,-0.875 0.28125,-0.8125 0.1875,-0.875 0.0625,-0.875 -0.0625,-0.8125 -0.125,-0.8125 -0.21875,-0.8125 -0.0625,-0.125 z m 239.125,0 -0.0312,0.40625 -0.21875,0.875 -0.25,0.8125 -0.40625,0.875 -0.53125,0.75 -0.625,0.75 -0.75,0.75 -0.875,0.59375 -1.28125,0.8125 -2.875,0.0625 c -1.8432,0.045 -5.3614,0.62613 -10.53125,1.75 l -3.09375,0.6875 c -1.79823,0.44957 -3.62559,0.87666 -5.46875,1.28125 -2.15787,0.49452 -4.00277,0.76755 -5.53125,0.8125 l -1.8125,0.0625 -0.875,-0.0625 -0.8125,-0.15625 -0.875,-0.25 -0.8125,-0.46875 -0.6875,-0.5625 -0.34375,-0.46875 -0.375,1.34375 0.5625,1.34375 0.59375,0.8125 0.6875,0.53125 0.8125,0.46875 0.875,0.28125 0.8125,0.125 0.875,0.0625 1.8125,-0.0625 c 1.52848,-0.0449 3.37338,-0.31798 5.53125,-0.8125 1.84316,-0.40459 3.67052,-0.83168 5.46875,-1.28125 l 3.09375,-0.65625 c 5.16985,-1.12387 8.6568,-1.70503 10.5,-1.75 l 2.90625,-0.0625 1.28125,-0.8125 0.875,-0.625 0.75,-0.71875 0.59375,-0.75 0.5625,-0.75 0.40625,-0.875 0.25,-0.8125 0.21875,-0.875 0.0625,-0.875 -0.0625,-0.8125 -0.15625,-0.8125 -0.1875,-0.8125 -0.0625,-0.125 z"
     id="text4109"
     style="font-size:69.05158234px;font-style:normal;font-variant:normal;font-weight:bold;font-stretch:normal;text-align:end;line-height:125%;letter-spacing:0px;word-spacing:0px;writing-mode:lr-tb;text-anchor:end;fill:#f9f9f9;fill-opacity:1;stroke:none;filter:url(#filter4124);font-family:'A.C.M.E. Explosive';-inkscape-font-specification:'A.C.M.E. Explosive Bold'" />
</svg>
